G04 #@! TF.GenerationSoftware,KiCad,Pcbnew,(5.0.0-rc2-20-gcf2a07559)*
G04 #@! TF.CreationDate,2018-05-24T23:42:55-07:00*
G04 #@! TF.ProjectId,Gecko_Controller,4765636B6F5F436F6E74726F6C6C6572,rev?*
G04 #@! TF.SameCoordinates,Original*
G04 #@! TF.FileFunction,Soldermask,Top*
G04 #@! TF.FilePolarity,Negative*
%FSLAX46Y46*%
G04 Gerber Fmt 4.6, Leading zero omitted, Abs format (unit mm)*
G04 Created by KiCad (PCBNEW (5.0.0-rc2-20-gcf2a07559)) date 05/24/18 23:42:55*
%MOMM*%
%LPD*%
G01*
G04 APERTURE LIST*
%ADD10R,0.450000X1.750000*%
%ADD11R,3.000000X3.000000*%
%ADD12C,3.203200*%
%ADD13R,1.727200X1.727200*%
%ADD14O,1.930400X1.930400*%
%ADD15O,1.704340X2.702560*%
%ADD16R,1.600000X1.600000*%
%ADD17O,1.803200X1.803200*%
%ADD18R,1.900000X2.000000*%
%ADD19C,2.103200*%
%ADD20C,1.727200*%
%ADD21C,2.903220*%
%ADD22R,1.498600X2.197100*%
%ADD23O,1.701800X2.400300*%
%ADD24R,2.000000X1.500000*%
%ADD25O,2.203200X1.703200*%
%ADD26C,2.202180*%
%ADD27C,2.203200*%
%ADD28R,1.998980X1.998980*%
%ADD29C,1.625600*%
%ADD30C,7.703200*%
%ADD31R,1.300000X1.300000*%
%ADD32C,1.503200*%
%ADD33C,1.902460*%
%ADD34R,1.699260X1.699260*%
%ADD35R,1.400000X1.400000*%
%ADD36C,1.603200*%
G04 APERTURE END LIST*
D10*
G04 #@! TO.C,U2*
X125129000Y-96095000D03*
X124479000Y-96095000D03*
X123829000Y-96095000D03*
X123179000Y-96095000D03*
X122529000Y-96095000D03*
X121879000Y-96095000D03*
X121229000Y-96095000D03*
X120579000Y-96095000D03*
X119929000Y-96095000D03*
X119279000Y-96095000D03*
X118629000Y-96095000D03*
X117979000Y-96095000D03*
X117329000Y-96095000D03*
X116679000Y-96095000D03*
X116679000Y-103295000D03*
X117329000Y-103295000D03*
X117979000Y-103295000D03*
X118629000Y-103295000D03*
X119279000Y-103295000D03*
X119929000Y-103295000D03*
X120579000Y-103295000D03*
X121229000Y-103295000D03*
X121879000Y-103295000D03*
X122529000Y-103295000D03*
X123179000Y-103295000D03*
X123829000Y-103295000D03*
X124479000Y-103295000D03*
X125129000Y-103295000D03*
G04 #@! TD*
D11*
G04 #@! TO.C,TB1*
X115500000Y-77900000D03*
D12*
X104500000Y-77900000D03*
G04 #@! TD*
D13*
G04 #@! TO.C,P3*
X164000000Y-68500000D03*
D14*
X164000000Y-65960000D03*
X166540000Y-68500000D03*
X166540000Y-65960000D03*
X169080000Y-68500000D03*
X169080000Y-65960000D03*
X171620000Y-68500000D03*
X171620000Y-65960000D03*
X174160000Y-68500000D03*
X174160000Y-65960000D03*
X176700000Y-68500000D03*
X176700000Y-65960000D03*
X179240000Y-68500000D03*
X179240000Y-65960000D03*
X181780000Y-68500000D03*
X181780000Y-65960000D03*
X184320000Y-68500000D03*
X184320000Y-65960000D03*
X186860000Y-68500000D03*
X186860000Y-65960000D03*
X189400000Y-68500000D03*
X189400000Y-65960000D03*
X191940000Y-68500000D03*
X191940000Y-65960000D03*
X194480000Y-68500000D03*
X194480000Y-65960000D03*
G04 #@! TD*
D15*
G04 #@! TO.C,U1*
X137000000Y-69500000D03*
X134460000Y-69500000D03*
X139540000Y-69500000D03*
G04 #@! TD*
D16*
G04 #@! TO.C,IC1*
X152000000Y-97000000D03*
D17*
X154540000Y-97000000D03*
X157080000Y-97000000D03*
X159620000Y-97000000D03*
X162160000Y-97000000D03*
X164700000Y-97000000D03*
X167240000Y-97000000D03*
X169780000Y-97000000D03*
X172320000Y-97000000D03*
X174860000Y-97000000D03*
X177400000Y-97000000D03*
X179940000Y-97000000D03*
X182480000Y-97000000D03*
X185020000Y-97000000D03*
X185020000Y-89380000D03*
X182480000Y-89380000D03*
X179940000Y-89380000D03*
X177400000Y-89380000D03*
X174860000Y-89380000D03*
X172320000Y-89380000D03*
X169780000Y-89380000D03*
X167240000Y-89380000D03*
X164700000Y-89380000D03*
X162160000Y-89380000D03*
X159620000Y-89380000D03*
X157080000Y-89380000D03*
X154540000Y-89380000D03*
X152000000Y-89380000D03*
G04 #@! TD*
D16*
G04 #@! TO.C,U3*
X106000000Y-97000000D03*
D17*
X106000000Y-94460000D03*
X106000000Y-91920000D03*
X106000000Y-89380000D03*
X98380000Y-89380000D03*
X98380000Y-91920000D03*
X98380000Y-94460000D03*
X98380000Y-97000000D03*
G04 #@! TD*
D16*
G04 #@! TO.C,Q1*
X99000000Y-107000000D03*
D17*
X99000000Y-109540000D03*
X106620000Y-109540000D03*
X106620000Y-107000000D03*
G04 #@! TD*
D18*
G04 #@! TO.C,D2*
X131000000Y-127000000D03*
D19*
X133540000Y-127000000D03*
G04 #@! TD*
D18*
G04 #@! TO.C,D3*
X122000000Y-127000000D03*
D19*
X124540000Y-127000000D03*
G04 #@! TD*
D18*
G04 #@! TO.C,D4*
X113000000Y-127000000D03*
D19*
X115540000Y-127000000D03*
G04 #@! TD*
D20*
G04 #@! TO.C,P1*
X102362000Y-117094000D03*
X104902000Y-117094000D03*
X104902000Y-119092980D03*
X102362000Y-119092980D03*
D21*
X97632520Y-121793000D03*
X109631480Y-121793000D03*
G04 #@! TD*
D11*
G04 #@! TO.C,TB5*
X175700000Y-119800000D03*
D12*
X182050000Y-119800000D03*
G04 #@! TD*
D11*
G04 #@! TO.C,TB2*
X191700000Y-119800000D03*
D12*
X198050000Y-119800000D03*
G04 #@! TD*
D11*
G04 #@! TO.C,TB4*
X159700000Y-119800000D03*
D12*
X166050000Y-119800000D03*
G04 #@! TD*
D11*
G04 #@! TO.C,TB3*
X143700000Y-119800000D03*
D12*
X150050000Y-119800000D03*
G04 #@! TD*
D22*
G04 #@! TO.C,SW2*
X191190000Y-111797300D03*
D23*
X193730000Y-111810000D03*
X196270000Y-111810000D03*
X198810000Y-111810000D03*
X198810000Y-104190000D03*
X196270000Y-104190000D03*
X193730000Y-104190000D03*
X191190000Y-104190000D03*
G04 #@! TD*
D24*
G04 #@! TO.C,P2*
X207980000Y-79460000D03*
D25*
X211020000Y-79460000D03*
X207980000Y-82000000D03*
X211020000Y-82000000D03*
X207980000Y-84540000D03*
X211020000Y-84540000D03*
G04 #@! TD*
D26*
G04 #@! TO.C,R5*
X211500000Y-106750000D03*
X211500000Y-99130000D03*
G04 #@! TD*
G04 #@! TO.C,R7*
X134477760Y-81584800D03*
X134477760Y-73964800D03*
G04 #@! TD*
G04 #@! TO.C,R6*
X131000000Y-74000000D03*
X131000000Y-81620000D03*
G04 #@! TD*
G04 #@! TO.C,R9*
X138303000Y-91567000D03*
X130683000Y-91567000D03*
G04 #@! TD*
G04 #@! TO.C,R8*
X138303000Y-103505000D03*
X130683000Y-103505000D03*
G04 #@! TD*
G04 #@! TO.C,R3*
X137000000Y-127000000D03*
X137000000Y-119380000D03*
G04 #@! TD*
G04 #@! TO.C,R4*
X128000000Y-127000000D03*
X128000000Y-119380000D03*
G04 #@! TD*
G04 #@! TO.C,R2*
X119000000Y-127000000D03*
X119000000Y-119380000D03*
G04 #@! TD*
D27*
G04 #@! TO.C,SW1*
X205000000Y-117500000D03*
X205000000Y-113000000D03*
X211500000Y-117500000D03*
X211500000Y-113000000D03*
G04 #@! TD*
D26*
G04 #@! TO.C,D1*
X126502540Y-84160000D03*
D28*
X126502540Y-74000000D03*
G04 #@! TD*
D29*
G04 #@! TO.C,Y1*
X176000000Y-102500000D03*
X170920000Y-102500000D03*
G04 #@! TD*
D30*
G04 #@! TO.C,REF\002A\002A*
X92000000Y-67000000D03*
G04 #@! TD*
G04 #@! TO.C,REF\002A\002A*
X92000000Y-126000000D03*
G04 #@! TD*
G04 #@! TO.C,REF\002A\002A*
X210000000Y-126000000D03*
G04 #@! TD*
G04 #@! TO.C,REF\002A\002A*
X210000000Y-67000000D03*
G04 #@! TD*
D31*
G04 #@! TO.C,C1*
X110617000Y-94488000D03*
D32*
X113117000Y-94488000D03*
G04 #@! TD*
D31*
G04 #@! TO.C,C2*
X166000000Y-110000000D03*
D32*
X166000000Y-107500000D03*
G04 #@! TD*
D31*
G04 #@! TO.C,C3*
X118999000Y-114554000D03*
D32*
X116499000Y-114554000D03*
G04 #@! TD*
D31*
G04 #@! TO.C,C4*
X127000000Y-69000000D03*
D32*
X127000000Y-67000000D03*
G04 #@! TD*
D31*
G04 #@! TO.C,C5*
X151000000Y-110000000D03*
D32*
X151000000Y-107500000D03*
G04 #@! TD*
D31*
G04 #@! TO.C,C6*
X156000000Y-110000000D03*
D32*
X156000000Y-107500000D03*
G04 #@! TD*
D31*
G04 #@! TO.C,C7*
X147000000Y-69000000D03*
D32*
X147000000Y-67000000D03*
G04 #@! TD*
D31*
G04 #@! TO.C,C9*
X161000000Y-110000000D03*
D32*
X161000000Y-107500000D03*
G04 #@! TD*
D31*
G04 #@! TO.C,C10*
X99000000Y-102000000D03*
D32*
X101500000Y-102000000D03*
G04 #@! TD*
D31*
G04 #@! TO.C,C11*
X177000000Y-110000000D03*
D32*
X177000000Y-107500000D03*
G04 #@! TD*
D31*
G04 #@! TO.C,C12*
X172000000Y-110000000D03*
D32*
X172000000Y-107500000D03*
G04 #@! TD*
D31*
G04 #@! TO.C,C13*
X165500000Y-86250000D03*
D32*
X165500000Y-83750000D03*
G04 #@! TD*
D31*
G04 #@! TO.C,C14*
X146000000Y-89000000D03*
D32*
X146000000Y-86500000D03*
G04 #@! TD*
D31*
G04 #@! TO.C,C15*
X185000000Y-78000000D03*
D32*
X185000000Y-75500000D03*
G04 #@! TD*
D31*
G04 #@! TO.C,C16*
X190000000Y-78000000D03*
D32*
X190000000Y-75500000D03*
G04 #@! TD*
D31*
G04 #@! TO.C,C8*
X146939000Y-73279000D03*
D32*
X144439000Y-73279000D03*
G04 #@! TD*
D31*
G04 #@! TO.C,C18*
X195000000Y-78000000D03*
D32*
X195000000Y-75500000D03*
G04 #@! TD*
D33*
G04 #@! TO.C,D5*
X205002540Y-106910520D03*
D34*
X205002540Y-96750520D03*
G04 #@! TD*
D35*
G04 #@! TO.C,F1*
X94488000Y-108458000D03*
D36*
X94488000Y-113458000D03*
G04 #@! TD*
D31*
G04 #@! TO.C,C17*
X118999000Y-109855000D03*
D32*
X116499000Y-109855000D03*
G04 #@! TD*
D31*
G04 #@! TO.C,C19*
X133096000Y-97409000D03*
D32*
X135596000Y-97409000D03*
G04 #@! TD*
M02*
