G04 #@! TF.GenerationSoftware,KiCad,Pcbnew,(5.0.0-rc2-20-gcf2a07559)*
G04 #@! TF.CreationDate,2018-05-24T23:42:55-07:00*
G04 #@! TF.ProjectId,Gecko_Controller,4765636B6F5F436F6E74726F6C6C6572,rev?*
G04 #@! TF.SameCoordinates,Original*
G04 #@! TF.FileFunction,Legend,Top*
G04 #@! TF.FilePolarity,Positive*
%FSLAX46Y46*%
G04 Gerber Fmt 4.6, Leading zero omitted, Abs format (unit mm)*
G04 Created by KiCad (PCBNEW (5.0.0-rc2-20-gcf2a07559)) date 05/24/18 23:42:55*
%MOMM*%
%LPD*%
G01*
G04 APERTURE LIST*
%ADD10C,0.300000*%
%ADD11C,0.150000*%
%ADD12C,0.250000*%
%ADD13C,0.381000*%
%ADD14C,0.254000*%
G04 APERTURE END LIST*
D10*
X91478571Y-98888214D02*
X92692857Y-99040000D01*
X92835714Y-99129285D01*
X92907142Y-99209642D01*
X92978571Y-99361428D01*
X92978571Y-99575714D01*
X92907142Y-99709642D01*
X92407142Y-99004285D02*
X92478571Y-99156071D01*
X92478571Y-99441785D01*
X92407142Y-99575714D01*
X92335714Y-99638214D01*
X92192857Y-99691785D01*
X91764285Y-99638214D01*
X91621428Y-99548928D01*
X91550000Y-99468571D01*
X91478571Y-99316785D01*
X91478571Y-99031071D01*
X91550000Y-98897142D01*
X92478571Y-98298928D02*
X91478571Y-98173928D01*
X90978571Y-98111428D02*
X91050000Y-98191785D01*
X91121428Y-98129285D01*
X91050000Y-98048928D01*
X90978571Y-98111428D01*
X91121428Y-98129285D01*
X91478571Y-97673928D02*
X91478571Y-97102500D01*
X90978571Y-97397142D02*
X92264285Y-97557857D01*
X92407142Y-97504285D01*
X92478571Y-97370357D01*
X92478571Y-97227500D01*
X92478571Y-96727500D02*
X90978571Y-96540000D01*
X92478571Y-96084642D02*
X91692857Y-95986428D01*
X91550000Y-96040000D01*
X91478571Y-96173928D01*
X91478571Y-96388214D01*
X91550000Y-96540000D01*
X91621428Y-96620357D01*
X91478571Y-94602500D02*
X92478571Y-94727500D01*
X91478571Y-95245357D02*
X92264285Y-95343571D01*
X92407142Y-95290000D01*
X92478571Y-95156071D01*
X92478571Y-94941785D01*
X92407142Y-94790000D01*
X92335714Y-94709642D01*
X92478571Y-94013214D02*
X90978571Y-93825714D01*
X91550000Y-93897142D02*
X91478571Y-93745357D01*
X91478571Y-93459642D01*
X91550000Y-93325714D01*
X91621428Y-93263214D01*
X91764285Y-93209642D01*
X92192857Y-93263214D01*
X92335714Y-93352500D01*
X92407142Y-93432857D01*
X92478571Y-93584642D01*
X92478571Y-93870357D01*
X92407142Y-94004285D01*
X92335714Y-92638214D02*
X92407142Y-92575714D01*
X92478571Y-92656071D01*
X92407142Y-92718571D01*
X92335714Y-92638214D01*
X92478571Y-92656071D01*
X92407142Y-91290000D02*
X92478571Y-91441785D01*
X92478571Y-91727500D01*
X92407142Y-91861428D01*
X92335714Y-91923928D01*
X92192857Y-91977500D01*
X91764285Y-91923928D01*
X91621428Y-91834642D01*
X91550000Y-91754285D01*
X91478571Y-91602500D01*
X91478571Y-91316785D01*
X91550000Y-91182857D01*
X92478571Y-90441785D02*
X92407142Y-90575714D01*
X92335714Y-90638214D01*
X92192857Y-90691785D01*
X91764285Y-90638214D01*
X91621428Y-90548928D01*
X91550000Y-90468571D01*
X91478571Y-90316785D01*
X91478571Y-90102500D01*
X91550000Y-89968571D01*
X91621428Y-89906071D01*
X91764285Y-89852500D01*
X92192857Y-89906071D01*
X92335714Y-89995357D01*
X92407142Y-90075714D01*
X92478571Y-90227500D01*
X92478571Y-90441785D01*
X92478571Y-89298928D02*
X91478571Y-89173928D01*
X91621428Y-89191785D02*
X91550000Y-89111428D01*
X91478571Y-88959642D01*
X91478571Y-88745357D01*
X91550000Y-88611428D01*
X91692857Y-88557857D01*
X92478571Y-88656071D01*
X91692857Y-88557857D02*
X91550000Y-88468571D01*
X91478571Y-88316785D01*
X91478571Y-88102500D01*
X91550000Y-87968571D01*
X91692857Y-87915000D01*
X92478571Y-88013214D01*
X90907142Y-86031071D02*
X92835714Y-87557857D01*
X90978571Y-84825714D02*
X90978571Y-85540000D01*
X91692857Y-85700714D01*
X91621428Y-85620357D01*
X91550000Y-85468571D01*
X91550000Y-85111428D01*
X91621428Y-84977500D01*
X91692857Y-84915000D01*
X91835714Y-84861428D01*
X92192857Y-84906071D01*
X92335714Y-84995357D01*
X92407142Y-85075714D01*
X92478571Y-85227500D01*
X92478571Y-85584642D01*
X92407142Y-85718571D01*
X92335714Y-85781071D01*
X90978571Y-83825714D02*
X90978571Y-83682857D01*
X91050000Y-83548928D01*
X91121428Y-83486428D01*
X91264285Y-83432857D01*
X91550000Y-83397142D01*
X91907142Y-83441785D01*
X92192857Y-83548928D01*
X92335714Y-83638214D01*
X92407142Y-83718571D01*
X92478571Y-83870357D01*
X92478571Y-84013214D01*
X92407142Y-84147142D01*
X92335714Y-84209642D01*
X92192857Y-84263214D01*
X91907142Y-84298928D01*
X91550000Y-84254285D01*
X91264285Y-84147142D01*
X91121428Y-84057857D01*
X91050000Y-83977500D01*
X90978571Y-83825714D01*
X92478571Y-82798928D02*
X92478571Y-82513214D01*
X92407142Y-82361428D01*
X92335714Y-82281071D01*
X92121428Y-82111428D01*
X91835714Y-82004285D01*
X91264285Y-81932857D01*
X91121428Y-81986428D01*
X91050000Y-82048928D01*
X90978571Y-82182857D01*
X90978571Y-82468571D01*
X91050000Y-82620357D01*
X91121428Y-82700714D01*
X91264285Y-82790000D01*
X91621428Y-82834642D01*
X91764285Y-82781071D01*
X91835714Y-82718571D01*
X91907142Y-82584642D01*
X91907142Y-82298928D01*
X91835714Y-82147142D01*
X91764285Y-82066785D01*
X91621428Y-81977500D01*
X92478571Y-81441785D02*
X90978571Y-81254285D01*
X92050000Y-80888214D01*
X90978571Y-80254285D01*
X92478571Y-80441785D01*
X92478571Y-79084642D02*
X91692857Y-78986428D01*
X91550000Y-79040000D01*
X91478571Y-79173928D01*
X91478571Y-79459642D01*
X91550000Y-79611428D01*
X92407142Y-79075714D02*
X92478571Y-79227500D01*
X92478571Y-79584642D01*
X92407142Y-79718571D01*
X92264285Y-79772142D01*
X92121428Y-79754285D01*
X91978571Y-79665000D01*
X91907142Y-79513214D01*
X91907142Y-79156071D01*
X91835714Y-79004285D01*
X92478571Y-78370357D02*
X90978571Y-78182857D01*
X91907142Y-78156071D02*
X92478571Y-77798928D01*
X91478571Y-77673928D02*
X92050000Y-78316785D01*
X92407142Y-76575714D02*
X92478571Y-76727500D01*
X92478571Y-77013214D01*
X92407142Y-77147142D01*
X92264285Y-77200714D01*
X91692857Y-77129285D01*
X91550000Y-77040000D01*
X91478571Y-76888214D01*
X91478571Y-76602500D01*
X91550000Y-76468571D01*
X91692857Y-76415000D01*
X91835714Y-76432857D01*
X91978571Y-77165000D01*
X92478571Y-75870357D02*
X91478571Y-75745357D01*
X91764285Y-75781071D02*
X91621428Y-75691785D01*
X91550000Y-75611428D01*
X91478571Y-75459642D01*
X91478571Y-75316785D01*
D11*
X120269047Y-114625428D02*
X121030952Y-114625428D01*
X120650000Y-115006380D02*
X120650000Y-114244476D01*
D12*
X159786714Y-73037000D02*
X159643857Y-72965571D01*
X159429571Y-72965571D01*
X159215285Y-73037000D01*
X159072428Y-73179857D01*
X159001000Y-73322714D01*
X158929571Y-73608428D01*
X158929571Y-73822714D01*
X159001000Y-74108428D01*
X159072428Y-74251285D01*
X159215285Y-74394142D01*
X159429571Y-74465571D01*
X159572428Y-74465571D01*
X159786714Y-74394142D01*
X159858142Y-74322714D01*
X159858142Y-73822714D01*
X159572428Y-73822714D01*
X161215285Y-72965571D02*
X160501000Y-72965571D01*
X160429571Y-73679857D01*
X160501000Y-73608428D01*
X160643857Y-73537000D01*
X161001000Y-73537000D01*
X161143857Y-73608428D01*
X161215285Y-73679857D01*
X161286714Y-73822714D01*
X161286714Y-74179857D01*
X161215285Y-74322714D01*
X161143857Y-74394142D01*
X161001000Y-74465571D01*
X160643857Y-74465571D01*
X160501000Y-74394142D01*
X160429571Y-74322714D01*
X162572428Y-73465571D02*
X162572428Y-74465571D01*
X162215285Y-72894142D02*
X161858142Y-73965571D01*
X162786714Y-73965571D01*
X163643857Y-72965571D02*
X163786714Y-72965571D01*
X163929571Y-73037000D01*
X164001000Y-73108428D01*
X164072428Y-73251285D01*
X164143857Y-73537000D01*
X164143857Y-73894142D01*
X164072428Y-74179857D01*
X164001000Y-74322714D01*
X163929571Y-74394142D01*
X163786714Y-74465571D01*
X163643857Y-74465571D01*
X163501000Y-74394142D01*
X163429571Y-74322714D01*
X163358142Y-74179857D01*
X163286714Y-73894142D01*
X163286714Y-73537000D01*
X163358142Y-73251285D01*
X163429571Y-73108428D01*
X163501000Y-73037000D01*
X163643857Y-72965571D01*
X165858142Y-72894142D02*
X164572428Y-74822714D01*
X166358142Y-74465571D02*
X166358142Y-72965571D01*
X166858142Y-74037000D01*
X167358142Y-72965571D01*
X167358142Y-74465571D01*
X167929571Y-72965571D02*
X168929571Y-74465571D01*
X168929571Y-72965571D02*
X167929571Y-74465571D01*
X169358142Y-72965571D02*
X170286714Y-72965571D01*
X169786714Y-73537000D01*
X170001000Y-73537000D01*
X170143857Y-73608428D01*
X170215285Y-73679857D01*
X170286714Y-73822714D01*
X170286714Y-74179857D01*
X170215285Y-74322714D01*
X170143857Y-74394142D01*
X170001000Y-74465571D01*
X169572428Y-74465571D01*
X169429571Y-74394142D01*
X169358142Y-74322714D01*
X171572428Y-72965571D02*
X171286714Y-72965571D01*
X171143857Y-73037000D01*
X171072428Y-73108428D01*
X170929571Y-73322714D01*
X170858142Y-73608428D01*
X170858142Y-74179857D01*
X170929571Y-74322714D01*
X171001000Y-74394142D01*
X171143857Y-74465571D01*
X171429571Y-74465571D01*
X171572428Y-74394142D01*
X171643857Y-74322714D01*
X171715285Y-74179857D01*
X171715285Y-73822714D01*
X171643857Y-73679857D01*
X171572428Y-73608428D01*
X171429571Y-73537000D01*
X171143857Y-73537000D01*
X171001000Y-73608428D01*
X170929571Y-73679857D01*
X170858142Y-73822714D01*
X173001000Y-72965571D02*
X172715285Y-72965571D01*
X172572428Y-73037000D01*
X172501000Y-73108428D01*
X172358142Y-73322714D01*
X172286714Y-73608428D01*
X172286714Y-74179857D01*
X172358142Y-74322714D01*
X172429571Y-74394142D01*
X172572428Y-74465571D01*
X172858142Y-74465571D01*
X173001000Y-74394142D01*
X173072428Y-74322714D01*
X173143857Y-74179857D01*
X173143857Y-73822714D01*
X173072428Y-73679857D01*
X173001000Y-73608428D01*
X172858142Y-73537000D01*
X172572428Y-73537000D01*
X172429571Y-73608428D01*
X172358142Y-73679857D01*
X172286714Y-73822714D01*
X174072428Y-72965571D02*
X174215285Y-72965571D01*
X174358142Y-73037000D01*
X174429571Y-73108428D01*
X174501000Y-73251285D01*
X174572428Y-73537000D01*
X174572428Y-73894142D01*
X174501000Y-74179857D01*
X174429571Y-74322714D01*
X174358142Y-74394142D01*
X174215285Y-74465571D01*
X174072428Y-74465571D01*
X173929571Y-74394142D01*
X173858142Y-74322714D01*
X173786714Y-74179857D01*
X173715285Y-73894142D01*
X173715285Y-73537000D01*
X173786714Y-73251285D01*
X173858142Y-73108428D01*
X173929571Y-73037000D01*
X174072428Y-72965571D01*
X207208714Y-92245571D02*
X207208714Y-90745571D01*
X208780142Y-92102714D02*
X208708714Y-92174142D01*
X208494428Y-92245571D01*
X208351571Y-92245571D01*
X208137285Y-92174142D01*
X207994428Y-92031285D01*
X207923000Y-91888428D01*
X207851571Y-91602714D01*
X207851571Y-91388428D01*
X207923000Y-91102714D01*
X207994428Y-90959857D01*
X208137285Y-90817000D01*
X208351571Y-90745571D01*
X208494428Y-90745571D01*
X208708714Y-90817000D01*
X208780142Y-90888428D01*
X209351571Y-92174142D02*
X209565857Y-92245571D01*
X209923000Y-92245571D01*
X210065857Y-92174142D01*
X210137285Y-92102714D01*
X210208714Y-91959857D01*
X210208714Y-91817000D01*
X210137285Y-91674142D01*
X210065857Y-91602714D01*
X209923000Y-91531285D01*
X209637285Y-91459857D01*
X209494428Y-91388428D01*
X209423000Y-91317000D01*
X209351571Y-91174142D01*
X209351571Y-91031285D01*
X209423000Y-90888428D01*
X209494428Y-90817000D01*
X209637285Y-90745571D01*
X209994428Y-90745571D01*
X210208714Y-90817000D01*
X210851571Y-92245571D02*
X210851571Y-90745571D01*
X211423000Y-90745571D01*
X211565857Y-90817000D01*
X211637285Y-90888428D01*
X211708714Y-91031285D01*
X211708714Y-91245571D01*
X211637285Y-91388428D01*
X211565857Y-91459857D01*
X211423000Y-91531285D01*
X210851571Y-91531285D01*
X206422857Y-120820571D02*
X205922857Y-120106285D01*
X205565714Y-120820571D02*
X205565714Y-119320571D01*
X206137142Y-119320571D01*
X206280000Y-119392000D01*
X206351428Y-119463428D01*
X206422857Y-119606285D01*
X206422857Y-119820571D01*
X206351428Y-119963428D01*
X206280000Y-120034857D01*
X206137142Y-120106285D01*
X205565714Y-120106285D01*
X207637142Y-120749142D02*
X207494285Y-120820571D01*
X207208571Y-120820571D01*
X207065714Y-120749142D01*
X206994285Y-120606285D01*
X206994285Y-120034857D01*
X207065714Y-119892000D01*
X207208571Y-119820571D01*
X207494285Y-119820571D01*
X207637142Y-119892000D01*
X207708571Y-120034857D01*
X207708571Y-120177714D01*
X206994285Y-120320571D01*
X208280000Y-120749142D02*
X208422857Y-120820571D01*
X208708571Y-120820571D01*
X208851428Y-120749142D01*
X208922857Y-120606285D01*
X208922857Y-120534857D01*
X208851428Y-120392000D01*
X208708571Y-120320571D01*
X208494285Y-120320571D01*
X208351428Y-120249142D01*
X208280000Y-120106285D01*
X208280000Y-120034857D01*
X208351428Y-119892000D01*
X208494285Y-119820571D01*
X208708571Y-119820571D01*
X208851428Y-119892000D01*
X210137142Y-120749142D02*
X209994285Y-120820571D01*
X209708571Y-120820571D01*
X209565714Y-120749142D01*
X209494285Y-120606285D01*
X209494285Y-120034857D01*
X209565714Y-119892000D01*
X209708571Y-119820571D01*
X209994285Y-119820571D01*
X210137142Y-119892000D01*
X210208571Y-120034857D01*
X210208571Y-120177714D01*
X209494285Y-120320571D01*
X210637142Y-119820571D02*
X211208571Y-119820571D01*
X210851428Y-119320571D02*
X210851428Y-120606285D01*
X210922857Y-120749142D01*
X211065714Y-120820571D01*
X211208571Y-120820571D01*
X173137428Y-115232571D02*
X172637428Y-114518285D01*
X172280285Y-115232571D02*
X172280285Y-113732571D01*
X172851714Y-113732571D01*
X172994571Y-113804000D01*
X173066000Y-113875428D01*
X173137428Y-114018285D01*
X173137428Y-114232571D01*
X173066000Y-114375428D01*
X172994571Y-114446857D01*
X172851714Y-114518285D01*
X172280285Y-114518285D01*
X174351714Y-115161142D02*
X174208857Y-115232571D01*
X173923142Y-115232571D01*
X173780285Y-115161142D01*
X173708857Y-115018285D01*
X173708857Y-114446857D01*
X173780285Y-114304000D01*
X173923142Y-114232571D01*
X174208857Y-114232571D01*
X174351714Y-114304000D01*
X174423142Y-114446857D01*
X174423142Y-114589714D01*
X173708857Y-114732571D01*
X174994571Y-115161142D02*
X175137428Y-115232571D01*
X175423142Y-115232571D01*
X175566000Y-115161142D01*
X175637428Y-115018285D01*
X175637428Y-114946857D01*
X175566000Y-114804000D01*
X175423142Y-114732571D01*
X175208857Y-114732571D01*
X175066000Y-114661142D01*
X174994571Y-114518285D01*
X174994571Y-114446857D01*
X175066000Y-114304000D01*
X175208857Y-114232571D01*
X175423142Y-114232571D01*
X175566000Y-114304000D01*
X176851714Y-115161142D02*
X176708857Y-115232571D01*
X176423142Y-115232571D01*
X176280285Y-115161142D01*
X176208857Y-115018285D01*
X176208857Y-114446857D01*
X176280285Y-114304000D01*
X176423142Y-114232571D01*
X176708857Y-114232571D01*
X176851714Y-114304000D01*
X176923142Y-114446857D01*
X176923142Y-114589714D01*
X176208857Y-114732571D01*
X177351714Y-114232571D02*
X177923142Y-114232571D01*
X177566000Y-113732571D02*
X177566000Y-115018285D01*
X177637428Y-115161142D01*
X177780285Y-115232571D01*
X177923142Y-115232571D01*
X178423142Y-114661142D02*
X179566000Y-114661142D01*
X180208857Y-114804000D02*
X180923142Y-114804000D01*
X180066000Y-115232571D02*
X180566000Y-113732571D01*
X181066000Y-115232571D01*
X181566000Y-115232571D02*
X181566000Y-113732571D01*
X181566000Y-114304000D02*
X181708857Y-114232571D01*
X181994571Y-114232571D01*
X182137428Y-114304000D01*
X182208857Y-114375428D01*
X182280285Y-114518285D01*
X182280285Y-114946857D01*
X182208857Y-115089714D01*
X182137428Y-115161142D01*
X181994571Y-115232571D01*
X181708857Y-115232571D01*
X181566000Y-115161142D01*
X183137428Y-115232571D02*
X182994571Y-115161142D01*
X182923142Y-115089714D01*
X182851714Y-114946857D01*
X182851714Y-114518285D01*
X182923142Y-114375428D01*
X182994571Y-114304000D01*
X183137428Y-114232571D01*
X183351714Y-114232571D01*
X183494571Y-114304000D01*
X183566000Y-114375428D01*
X183637428Y-114518285D01*
X183637428Y-114946857D01*
X183566000Y-115089714D01*
X183494571Y-115161142D01*
X183351714Y-115232571D01*
X183137428Y-115232571D01*
X184280285Y-115232571D02*
X184280285Y-114232571D01*
X184280285Y-114518285D02*
X184351714Y-114375428D01*
X184423142Y-114304000D01*
X184566000Y-114232571D01*
X184708857Y-114232571D01*
X184994571Y-114232571D02*
X185566000Y-114232571D01*
X185208857Y-113732571D02*
X185208857Y-115018285D01*
X185280285Y-115161142D01*
X185423142Y-115232571D01*
X185566000Y-115232571D01*
X157726714Y-114446857D02*
X157226714Y-114446857D01*
X157226714Y-115232571D02*
X157226714Y-113732571D01*
X157941000Y-113732571D01*
X159083857Y-115161142D02*
X158941000Y-115232571D01*
X158655285Y-115232571D01*
X158512428Y-115161142D01*
X158441000Y-115018285D01*
X158441000Y-114446857D01*
X158512428Y-114304000D01*
X158655285Y-114232571D01*
X158941000Y-114232571D01*
X159083857Y-114304000D01*
X159155285Y-114446857D01*
X159155285Y-114589714D01*
X158441000Y-114732571D01*
X160369571Y-115161142D02*
X160226714Y-115232571D01*
X159941000Y-115232571D01*
X159798142Y-115161142D01*
X159726714Y-115018285D01*
X159726714Y-114446857D01*
X159798142Y-114304000D01*
X159941000Y-114232571D01*
X160226714Y-114232571D01*
X160369571Y-114304000D01*
X160441000Y-114446857D01*
X160441000Y-114589714D01*
X159726714Y-114732571D01*
X161726714Y-115232571D02*
X161726714Y-113732571D01*
X161726714Y-115161142D02*
X161583857Y-115232571D01*
X161298142Y-115232571D01*
X161155285Y-115161142D01*
X161083857Y-115089714D01*
X161012428Y-114946857D01*
X161012428Y-114518285D01*
X161083857Y-114375428D01*
X161155285Y-114304000D01*
X161298142Y-114232571D01*
X161583857Y-114232571D01*
X161726714Y-114304000D01*
X162441000Y-114661142D02*
X163583857Y-114661142D01*
X164298142Y-115232571D02*
X164298142Y-113732571D01*
X164298142Y-114446857D02*
X165155285Y-114446857D01*
X165155285Y-115232571D02*
X165155285Y-113732571D01*
X166083857Y-115232571D02*
X165941000Y-115161142D01*
X165869571Y-115089714D01*
X165798142Y-114946857D01*
X165798142Y-114518285D01*
X165869571Y-114375428D01*
X165941000Y-114304000D01*
X166083857Y-114232571D01*
X166298142Y-114232571D01*
X166441000Y-114304000D01*
X166512428Y-114375428D01*
X166583857Y-114518285D01*
X166583857Y-114946857D01*
X166512428Y-115089714D01*
X166441000Y-115161142D01*
X166298142Y-115232571D01*
X166083857Y-115232571D01*
X167441000Y-115232571D02*
X167298142Y-115161142D01*
X167226714Y-115018285D01*
X167226714Y-113732571D01*
X168655285Y-115232571D02*
X168655285Y-113732571D01*
X168655285Y-115161142D02*
X168512428Y-115232571D01*
X168226714Y-115232571D01*
X168083857Y-115161142D01*
X168012428Y-115089714D01*
X167941000Y-114946857D01*
X167941000Y-114518285D01*
X168012428Y-114375428D01*
X168083857Y-114304000D01*
X168226714Y-114232571D01*
X168512428Y-114232571D01*
X168655285Y-114304000D01*
X139260428Y-115161142D02*
X139474714Y-115232571D01*
X139831857Y-115232571D01*
X139974714Y-115161142D01*
X140046142Y-115089714D01*
X140117571Y-114946857D01*
X140117571Y-114804000D01*
X140046142Y-114661142D01*
X139974714Y-114589714D01*
X139831857Y-114518285D01*
X139546142Y-114446857D01*
X139403285Y-114375428D01*
X139331857Y-114304000D01*
X139260428Y-114161142D01*
X139260428Y-114018285D01*
X139331857Y-113875428D01*
X139403285Y-113804000D01*
X139546142Y-113732571D01*
X139903285Y-113732571D01*
X140117571Y-113804000D01*
X140546142Y-114232571D02*
X141117571Y-114232571D01*
X140760428Y-113732571D02*
X140760428Y-115018285D01*
X140831857Y-115161142D01*
X140974714Y-115232571D01*
X141117571Y-115232571D01*
X142260428Y-115232571D02*
X142260428Y-114446857D01*
X142189000Y-114304000D01*
X142046142Y-114232571D01*
X141760428Y-114232571D01*
X141617571Y-114304000D01*
X142260428Y-115161142D02*
X142117571Y-115232571D01*
X141760428Y-115232571D01*
X141617571Y-115161142D01*
X141546142Y-115018285D01*
X141546142Y-114875428D01*
X141617571Y-114732571D01*
X141760428Y-114661142D01*
X142117571Y-114661142D01*
X142260428Y-114589714D01*
X142974714Y-115232571D02*
X142974714Y-114232571D01*
X142974714Y-114518285D02*
X143046142Y-114375428D01*
X143117571Y-114304000D01*
X143260428Y-114232571D01*
X143403285Y-114232571D01*
X143689000Y-114232571D02*
X144260428Y-114232571D01*
X143903285Y-113732571D02*
X143903285Y-115018285D01*
X143974714Y-115161142D01*
X144117571Y-115232571D01*
X144260428Y-115232571D01*
X144760428Y-114661142D02*
X145903285Y-114661142D01*
X147474714Y-115232571D02*
X146974714Y-114518285D01*
X146617571Y-115232571D02*
X146617571Y-113732571D01*
X147189000Y-113732571D01*
X147331857Y-113804000D01*
X147403285Y-113875428D01*
X147474714Y-114018285D01*
X147474714Y-114232571D01*
X147403285Y-114375428D01*
X147331857Y-114446857D01*
X147189000Y-114518285D01*
X146617571Y-114518285D01*
X148689000Y-115161142D02*
X148546142Y-115232571D01*
X148260428Y-115232571D01*
X148117571Y-115161142D01*
X148046142Y-115018285D01*
X148046142Y-114446857D01*
X148117571Y-114304000D01*
X148260428Y-114232571D01*
X148546142Y-114232571D01*
X148689000Y-114304000D01*
X148760428Y-114446857D01*
X148760428Y-114589714D01*
X148046142Y-114732571D01*
X149331857Y-115161142D02*
X149474714Y-115232571D01*
X149760428Y-115232571D01*
X149903285Y-115161142D01*
X149974714Y-115018285D01*
X149974714Y-114946857D01*
X149903285Y-114804000D01*
X149760428Y-114732571D01*
X149546142Y-114732571D01*
X149403285Y-114661142D01*
X149331857Y-114518285D01*
X149331857Y-114446857D01*
X149403285Y-114304000D01*
X149546142Y-114232571D01*
X149760428Y-114232571D01*
X149903285Y-114304000D01*
X151260428Y-114232571D02*
X151260428Y-115232571D01*
X150617571Y-114232571D02*
X150617571Y-115018285D01*
X150689000Y-115161142D01*
X150831857Y-115232571D01*
X151046142Y-115232571D01*
X151189000Y-115161142D01*
X151260428Y-115089714D01*
X151974714Y-115232571D02*
X151974714Y-114232571D01*
X151974714Y-114375428D02*
X152046142Y-114304000D01*
X152189000Y-114232571D01*
X152403285Y-114232571D01*
X152546142Y-114304000D01*
X152617571Y-114446857D01*
X152617571Y-115232571D01*
X152617571Y-114446857D02*
X152689000Y-114304000D01*
X152831857Y-114232571D01*
X153046142Y-114232571D01*
X153189000Y-114304000D01*
X153260428Y-114446857D01*
X153260428Y-115232571D01*
X154546142Y-115161142D02*
X154403285Y-115232571D01*
X154117571Y-115232571D01*
X153974714Y-115161142D01*
X153903285Y-115018285D01*
X153903285Y-114446857D01*
X153974714Y-114304000D01*
X154117571Y-114232571D01*
X154403285Y-114232571D01*
X154546142Y-114304000D01*
X154617571Y-114446857D01*
X154617571Y-114589714D01*
X153903285Y-114732571D01*
D11*
X118332571Y-99623571D02*
X117999238Y-99623571D01*
X117999238Y-100147380D02*
X117999238Y-99147380D01*
X118475428Y-99147380D01*
X118713523Y-99147380D02*
X119284952Y-99147380D01*
X118999238Y-100147380D02*
X118999238Y-99147380D01*
X119570666Y-99242619D02*
X119618285Y-99195000D01*
X119713523Y-99147380D01*
X119951619Y-99147380D01*
X120046857Y-99195000D01*
X120094476Y-99242619D01*
X120142095Y-99337857D01*
X120142095Y-99433095D01*
X120094476Y-99575952D01*
X119523047Y-100147380D01*
X120142095Y-100147380D01*
X120475428Y-99147380D02*
X121094476Y-99147380D01*
X120761142Y-99528333D01*
X120904000Y-99528333D01*
X120999238Y-99575952D01*
X121046857Y-99623571D01*
X121094476Y-99718809D01*
X121094476Y-99956904D01*
X121046857Y-100052142D01*
X120999238Y-100099761D01*
X120904000Y-100147380D01*
X120618285Y-100147380D01*
X120523047Y-100099761D01*
X120475428Y-100052142D01*
X121475428Y-99242619D02*
X121523047Y-99195000D01*
X121618285Y-99147380D01*
X121856380Y-99147380D01*
X121951619Y-99195000D01*
X121999238Y-99242619D01*
X122046857Y-99337857D01*
X122046857Y-99433095D01*
X121999238Y-99575952D01*
X121427809Y-100147380D01*
X122046857Y-100147380D01*
X123046857Y-100147380D02*
X122713523Y-99671190D01*
X122475428Y-100147380D02*
X122475428Y-99147380D01*
X122856380Y-99147380D01*
X122951619Y-99195000D01*
X122999238Y-99242619D01*
X123046857Y-99337857D01*
X123046857Y-99480714D01*
X122999238Y-99575952D01*
X122951619Y-99623571D01*
X122856380Y-99671190D01*
X122475428Y-99671190D01*
X123951619Y-100147380D02*
X123475428Y-100147380D01*
X123475428Y-99147380D01*
D12*
X122301142Y-121606571D02*
X123158285Y-121606571D01*
X122729714Y-123106571D02*
X122729714Y-121606571D01*
X123515428Y-121606571D02*
X124515428Y-123106571D01*
X124515428Y-121606571D02*
X123515428Y-123106571D01*
X131957000Y-122979571D02*
X131457000Y-122265285D01*
X131099857Y-122979571D02*
X131099857Y-121479571D01*
X131671285Y-121479571D01*
X131814142Y-121551000D01*
X131885571Y-121622428D01*
X131957000Y-121765285D01*
X131957000Y-121979571D01*
X131885571Y-122122428D01*
X131814142Y-122193857D01*
X131671285Y-122265285D01*
X131099857Y-122265285D01*
X132457000Y-121479571D02*
X133457000Y-122979571D01*
X133457000Y-121479571D02*
X132457000Y-122979571D01*
X112300000Y-122979571D02*
X112300000Y-121479571D01*
X112871428Y-121479571D01*
X113014285Y-121551000D01*
X113085714Y-121622428D01*
X113157142Y-121765285D01*
X113157142Y-121979571D01*
X113085714Y-122122428D01*
X113014285Y-122193857D01*
X112871428Y-122265285D01*
X112300000Y-122265285D01*
X113657142Y-121479571D02*
X114014285Y-122979571D01*
X114300000Y-121908142D01*
X114585714Y-122979571D01*
X114942857Y-121479571D01*
X116371428Y-122979571D02*
X115871428Y-122265285D01*
X115514285Y-122979571D02*
X115514285Y-121479571D01*
X116085714Y-121479571D01*
X116228571Y-121551000D01*
X116300000Y-121622428D01*
X116371428Y-121765285D01*
X116371428Y-121979571D01*
X116300000Y-122122428D01*
X116228571Y-122193857D01*
X116085714Y-122265285D01*
X115514285Y-122265285D01*
D11*
X93218142Y-110926571D02*
X92884809Y-110926571D01*
X92884809Y-111450380D02*
X92884809Y-110450380D01*
X93361000Y-110450380D01*
X94170523Y-110783714D02*
X94170523Y-111450380D01*
X93741952Y-110783714D02*
X93741952Y-111307523D01*
X93789571Y-111402761D01*
X93884809Y-111450380D01*
X94027666Y-111450380D01*
X94122904Y-111402761D01*
X94170523Y-111355142D01*
X94599095Y-111402761D02*
X94694333Y-111450380D01*
X94884809Y-111450380D01*
X94980047Y-111402761D01*
X95027666Y-111307523D01*
X95027666Y-111259904D01*
X94980047Y-111164666D01*
X94884809Y-111117047D01*
X94741952Y-111117047D01*
X94646714Y-111069428D01*
X94599095Y-110974190D01*
X94599095Y-110926571D01*
X94646714Y-110831333D01*
X94741952Y-110783714D01*
X94884809Y-110783714D01*
X94980047Y-110831333D01*
X95837190Y-111402761D02*
X95741952Y-111450380D01*
X95551476Y-111450380D01*
X95456238Y-111402761D01*
X95408619Y-111307523D01*
X95408619Y-110926571D01*
X95456238Y-110831333D01*
X95551476Y-110783714D01*
X95741952Y-110783714D01*
X95837190Y-110831333D01*
X95884809Y-110926571D01*
X95884809Y-111021809D01*
X95408619Y-111117047D01*
X116451238Y-116498714D02*
X116451238Y-117165380D01*
X116213142Y-116117761D02*
X115975047Y-116832047D01*
X116594095Y-116832047D01*
X116975047Y-117070142D02*
X117022666Y-117117761D01*
X116975047Y-117165380D01*
X116927428Y-117117761D01*
X116975047Y-117070142D01*
X116975047Y-117165380D01*
X117356000Y-116165380D02*
X118022666Y-116165380D01*
X117594095Y-117165380D01*
X118832190Y-116498714D02*
X118832190Y-117165380D01*
X118403619Y-116498714D02*
X118403619Y-117022523D01*
X118451238Y-117117761D01*
X118546476Y-117165380D01*
X118689333Y-117165380D01*
X118784571Y-117117761D01*
X118832190Y-117070142D01*
X119641714Y-116641571D02*
X119308380Y-116641571D01*
X119308380Y-117165380D02*
X119308380Y-116165380D01*
X119784571Y-116165380D01*
X116213142Y-111466380D02*
X116308380Y-111466380D01*
X116403619Y-111514000D01*
X116451238Y-111561619D01*
X116498857Y-111656857D01*
X116546476Y-111847333D01*
X116546476Y-112085428D01*
X116498857Y-112275904D01*
X116451238Y-112371142D01*
X116403619Y-112418761D01*
X116308380Y-112466380D01*
X116213142Y-112466380D01*
X116117904Y-112418761D01*
X116070285Y-112371142D01*
X116022666Y-112275904D01*
X115975047Y-112085428D01*
X115975047Y-111847333D01*
X116022666Y-111656857D01*
X116070285Y-111561619D01*
X116117904Y-111514000D01*
X116213142Y-111466380D01*
X116975047Y-112371142D02*
X117022666Y-112418761D01*
X116975047Y-112466380D01*
X116927428Y-112418761D01*
X116975047Y-112371142D01*
X116975047Y-112466380D01*
X117975047Y-112466380D02*
X117403619Y-112466380D01*
X117689333Y-112466380D02*
X117689333Y-111466380D01*
X117594095Y-111609238D01*
X117498857Y-111704476D01*
X117403619Y-111752095D01*
X118832190Y-111799714D02*
X118832190Y-112466380D01*
X118403619Y-111799714D02*
X118403619Y-112323523D01*
X118451238Y-112418761D01*
X118546476Y-112466380D01*
X118689333Y-112466380D01*
X118784571Y-112418761D01*
X118832190Y-112371142D01*
X119641714Y-111942571D02*
X119308380Y-111942571D01*
X119308380Y-112466380D02*
X119308380Y-111466380D01*
X119784571Y-111466380D01*
X110244142Y-96226380D02*
X110339380Y-96226380D01*
X110434619Y-96274000D01*
X110482238Y-96321619D01*
X110529857Y-96416857D01*
X110577476Y-96607333D01*
X110577476Y-96845428D01*
X110529857Y-97035904D01*
X110482238Y-97131142D01*
X110434619Y-97178761D01*
X110339380Y-97226380D01*
X110244142Y-97226380D01*
X110148904Y-97178761D01*
X110101285Y-97131142D01*
X110053666Y-97035904D01*
X110006047Y-96845428D01*
X110006047Y-96607333D01*
X110053666Y-96416857D01*
X110101285Y-96321619D01*
X110148904Y-96274000D01*
X110244142Y-96226380D01*
X111006047Y-97131142D02*
X111053666Y-97178761D01*
X111006047Y-97226380D01*
X110958428Y-97178761D01*
X111006047Y-97131142D01*
X111006047Y-97226380D01*
X112006047Y-97226380D02*
X111434619Y-97226380D01*
X111720333Y-97226380D02*
X111720333Y-96226380D01*
X111625095Y-96369238D01*
X111529857Y-96464476D01*
X111434619Y-96512095D01*
X112863190Y-96559714D02*
X112863190Y-97226380D01*
X112434619Y-96559714D02*
X112434619Y-97083523D01*
X112482238Y-97178761D01*
X112577476Y-97226380D01*
X112720333Y-97226380D01*
X112815571Y-97178761D01*
X112863190Y-97131142D01*
X113672714Y-96702571D02*
X113339380Y-96702571D01*
X113339380Y-97226380D02*
X113339380Y-96226380D01*
X113815571Y-96226380D01*
X132723142Y-99274380D02*
X132818380Y-99274380D01*
X132913619Y-99322000D01*
X132961238Y-99369619D01*
X133008857Y-99464857D01*
X133056476Y-99655333D01*
X133056476Y-99893428D01*
X133008857Y-100083904D01*
X132961238Y-100179142D01*
X132913619Y-100226761D01*
X132818380Y-100274380D01*
X132723142Y-100274380D01*
X132627904Y-100226761D01*
X132580285Y-100179142D01*
X132532666Y-100083904D01*
X132485047Y-99893428D01*
X132485047Y-99655333D01*
X132532666Y-99464857D01*
X132580285Y-99369619D01*
X132627904Y-99322000D01*
X132723142Y-99274380D01*
X133485047Y-100179142D02*
X133532666Y-100226761D01*
X133485047Y-100274380D01*
X133437428Y-100226761D01*
X133485047Y-100179142D01*
X133485047Y-100274380D01*
X134485047Y-100274380D02*
X133913619Y-100274380D01*
X134199333Y-100274380D02*
X134199333Y-99274380D01*
X134104095Y-99417238D01*
X134008857Y-99512476D01*
X133913619Y-99560095D01*
X135342190Y-99607714D02*
X135342190Y-100274380D01*
X134913619Y-99607714D02*
X134913619Y-100131523D01*
X134961238Y-100226761D01*
X135056476Y-100274380D01*
X135199333Y-100274380D01*
X135294571Y-100226761D01*
X135342190Y-100179142D01*
X136151714Y-99750571D02*
X135818380Y-99750571D01*
X135818380Y-100274380D02*
X135818380Y-99274380D01*
X136294571Y-99274380D01*
X134715523Y-65730380D02*
X134382190Y-65254190D01*
X134144095Y-65730380D02*
X134144095Y-64730380D01*
X134525047Y-64730380D01*
X134620285Y-64778000D01*
X134667904Y-64825619D01*
X134715523Y-64920857D01*
X134715523Y-65063714D01*
X134667904Y-65158952D01*
X134620285Y-65206571D01*
X134525047Y-65254190D01*
X134144095Y-65254190D01*
X135144095Y-65349428D02*
X135906000Y-65349428D01*
X136286952Y-64730380D02*
X136953619Y-64730380D01*
X136525047Y-65730380D01*
X137477428Y-65158952D02*
X137382190Y-65111333D01*
X137334571Y-65063714D01*
X137286952Y-64968476D01*
X137286952Y-64920857D01*
X137334571Y-64825619D01*
X137382190Y-64778000D01*
X137477428Y-64730380D01*
X137667904Y-64730380D01*
X137763142Y-64778000D01*
X137810761Y-64825619D01*
X137858380Y-64920857D01*
X137858380Y-64968476D01*
X137810761Y-65063714D01*
X137763142Y-65111333D01*
X137667904Y-65158952D01*
X137477428Y-65158952D01*
X137382190Y-65206571D01*
X137334571Y-65254190D01*
X137286952Y-65349428D01*
X137286952Y-65539904D01*
X137334571Y-65635142D01*
X137382190Y-65682761D01*
X137477428Y-65730380D01*
X137667904Y-65730380D01*
X137763142Y-65682761D01*
X137810761Y-65635142D01*
X137858380Y-65539904D01*
X137858380Y-65349428D01*
X137810761Y-65254190D01*
X137763142Y-65206571D01*
X137667904Y-65158952D01*
X138286952Y-65206571D02*
X138620285Y-65206571D01*
X138763142Y-65730380D02*
X138286952Y-65730380D01*
X138286952Y-64730380D01*
X138763142Y-64730380D01*
X139667904Y-64730380D02*
X139191714Y-64730380D01*
X139144095Y-65206571D01*
X139191714Y-65158952D01*
X139286952Y-65111333D01*
X139525047Y-65111333D01*
X139620285Y-65158952D01*
X139667904Y-65206571D01*
X139715523Y-65301809D01*
X139715523Y-65539904D01*
X139667904Y-65635142D01*
X139620285Y-65682761D01*
X139525047Y-65730380D01*
X139286952Y-65730380D01*
X139191714Y-65682761D01*
X139144095Y-65635142D01*
X203652380Y-103996857D02*
X203652380Y-104568285D01*
X203652380Y-104282571D02*
X202652380Y-104282571D01*
X202795238Y-104377809D01*
X202890476Y-104473047D01*
X202938095Y-104568285D01*
X203652380Y-103568285D02*
X202652380Y-103568285D01*
X203652380Y-102996857D01*
X202652380Y-102996857D01*
X202985714Y-102092095D02*
X203652380Y-102092095D01*
X202604761Y-102330190D02*
X203319047Y-102568285D01*
X203319047Y-101949238D01*
X203652380Y-101044476D02*
X203652380Y-101615904D01*
X203652380Y-101330190D02*
X202652380Y-101330190D01*
X202795238Y-101425428D01*
X202890476Y-101520666D01*
X202938095Y-101615904D01*
X202985714Y-100187333D02*
X203652380Y-100187333D01*
X202604761Y-100425428D02*
X203319047Y-100663523D01*
X203319047Y-100044476D01*
X203080952Y-99520666D02*
X203033333Y-99615904D01*
X202985714Y-99663523D01*
X202890476Y-99711142D01*
X202842857Y-99711142D01*
X202747619Y-99663523D01*
X202700000Y-99615904D01*
X202652380Y-99520666D01*
X202652380Y-99330190D01*
X202700000Y-99234952D01*
X202747619Y-99187333D01*
X202842857Y-99139714D01*
X202890476Y-99139714D01*
X202985714Y-99187333D01*
X203033333Y-99234952D01*
X203080952Y-99330190D01*
X203080952Y-99520666D01*
X203128571Y-99615904D01*
X203176190Y-99663523D01*
X203271428Y-99711142D01*
X203461904Y-99711142D01*
X203557142Y-99663523D01*
X203604761Y-99615904D01*
X203652380Y-99520666D01*
X203652380Y-99330190D01*
X203604761Y-99234952D01*
X203557142Y-99187333D01*
X203461904Y-99139714D01*
X203271428Y-99139714D01*
X203176190Y-99187333D01*
X203128571Y-99234952D01*
X203080952Y-99330190D01*
X212034380Y-103560476D02*
X212034380Y-104131904D01*
X212034380Y-103846190D02*
X211034380Y-103846190D01*
X211177238Y-103941428D01*
X211272476Y-104036666D01*
X211320095Y-104131904D01*
X211034380Y-102941428D02*
X211034380Y-102846190D01*
X211082000Y-102750952D01*
X211129619Y-102703333D01*
X211224857Y-102655714D01*
X211415333Y-102608095D01*
X211653428Y-102608095D01*
X211843904Y-102655714D01*
X211939142Y-102703333D01*
X211986761Y-102750952D01*
X212034380Y-102846190D01*
X212034380Y-102941428D01*
X211986761Y-103036666D01*
X211939142Y-103084285D01*
X211843904Y-103131904D01*
X211653428Y-103179523D01*
X211415333Y-103179523D01*
X211224857Y-103131904D01*
X211129619Y-103084285D01*
X211082000Y-103036666D01*
X211034380Y-102941428D01*
X212034380Y-102179523D02*
X211034380Y-102179523D01*
X212034380Y-101608095D02*
X211462952Y-102036666D01*
X211034380Y-101608095D02*
X211605809Y-102179523D01*
X164203619Y-93384666D02*
X164679809Y-93384666D01*
X164108380Y-93670380D02*
X164441714Y-92670380D01*
X164775047Y-93670380D01*
X164965523Y-93003714D02*
X165346476Y-93003714D01*
X165108380Y-92670380D02*
X165108380Y-93527523D01*
X165156000Y-93622761D01*
X165251238Y-93670380D01*
X165346476Y-93670380D01*
X165679809Y-93670380D02*
X165679809Y-93003714D01*
X165679809Y-93098952D02*
X165727428Y-93051333D01*
X165822666Y-93003714D01*
X165965523Y-93003714D01*
X166060761Y-93051333D01*
X166108380Y-93146571D01*
X166108380Y-93670380D01*
X166108380Y-93146571D02*
X166156000Y-93051333D01*
X166251238Y-93003714D01*
X166394095Y-93003714D01*
X166489333Y-93051333D01*
X166536952Y-93146571D01*
X166536952Y-93670380D01*
X167394095Y-93622761D02*
X167298857Y-93670380D01*
X167108380Y-93670380D01*
X167013142Y-93622761D01*
X166965523Y-93527523D01*
X166965523Y-93146571D01*
X167013142Y-93051333D01*
X167108380Y-93003714D01*
X167298857Y-93003714D01*
X167394095Y-93051333D01*
X167441714Y-93146571D01*
X167441714Y-93241809D01*
X166965523Y-93337047D01*
X168298857Y-93003714D02*
X168298857Y-93813238D01*
X168251238Y-93908476D01*
X168203619Y-93956095D01*
X168108380Y-94003714D01*
X167965523Y-94003714D01*
X167870285Y-93956095D01*
X168298857Y-93622761D02*
X168203619Y-93670380D01*
X168013142Y-93670380D01*
X167917904Y-93622761D01*
X167870285Y-93575142D01*
X167822666Y-93479904D01*
X167822666Y-93194190D01*
X167870285Y-93098952D01*
X167917904Y-93051333D01*
X168013142Y-93003714D01*
X168203619Y-93003714D01*
X168298857Y-93051333D01*
X169203619Y-93670380D02*
X169203619Y-93146571D01*
X169156000Y-93051333D01*
X169060761Y-93003714D01*
X168870285Y-93003714D01*
X168775047Y-93051333D01*
X169203619Y-93622761D02*
X169108380Y-93670380D01*
X168870285Y-93670380D01*
X168775047Y-93622761D01*
X168727428Y-93527523D01*
X168727428Y-93432285D01*
X168775047Y-93337047D01*
X168870285Y-93289428D01*
X169108380Y-93289428D01*
X169203619Y-93241809D01*
X169584571Y-92670380D02*
X170203619Y-92670380D01*
X169870285Y-93051333D01*
X170013142Y-93051333D01*
X170108380Y-93098952D01*
X170156000Y-93146571D01*
X170203619Y-93241809D01*
X170203619Y-93479904D01*
X170156000Y-93575142D01*
X170108380Y-93622761D01*
X170013142Y-93670380D01*
X169727428Y-93670380D01*
X169632190Y-93622761D01*
X169584571Y-93575142D01*
X170584571Y-92765619D02*
X170632190Y-92718000D01*
X170727428Y-92670380D01*
X170965523Y-92670380D01*
X171060761Y-92718000D01*
X171108380Y-92765619D01*
X171156000Y-92860857D01*
X171156000Y-92956095D01*
X171108380Y-93098952D01*
X170536952Y-93670380D01*
X171156000Y-93670380D01*
X171727428Y-93098952D02*
X171632190Y-93051333D01*
X171584571Y-93003714D01*
X171536952Y-92908476D01*
X171536952Y-92860857D01*
X171584571Y-92765619D01*
X171632190Y-92718000D01*
X171727428Y-92670380D01*
X171917904Y-92670380D01*
X172013142Y-92718000D01*
X172060761Y-92765619D01*
X172108380Y-92860857D01*
X172108380Y-92908476D01*
X172060761Y-93003714D01*
X172013142Y-93051333D01*
X171917904Y-93098952D01*
X171727428Y-93098952D01*
X171632190Y-93146571D01*
X171584571Y-93194190D01*
X171536952Y-93289428D01*
X171536952Y-93479904D01*
X171584571Y-93575142D01*
X171632190Y-93622761D01*
X171727428Y-93670380D01*
X171917904Y-93670380D01*
X172013142Y-93622761D01*
X172060761Y-93575142D01*
X172108380Y-93479904D01*
X172108380Y-93289428D01*
X172060761Y-93194190D01*
X172013142Y-93146571D01*
X171917904Y-93098952D01*
X172536952Y-93670380D02*
X172536952Y-92670380D01*
X172917904Y-92670380D01*
X173013142Y-92718000D01*
X173060761Y-92765619D01*
X173108380Y-92860857D01*
X173108380Y-93003714D01*
X173060761Y-93098952D01*
X173013142Y-93146571D01*
X172917904Y-93194190D01*
X172536952Y-93194190D01*
X171791523Y-99512380D02*
X171220095Y-99512380D01*
X171505809Y-99512380D02*
X171505809Y-98512380D01*
X171410571Y-98655238D01*
X171315333Y-98750476D01*
X171220095Y-98798095D01*
X172648666Y-98512380D02*
X172458190Y-98512380D01*
X172362952Y-98560000D01*
X172315333Y-98607619D01*
X172220095Y-98750476D01*
X172172476Y-98940952D01*
X172172476Y-99321904D01*
X172220095Y-99417142D01*
X172267714Y-99464761D01*
X172362952Y-99512380D01*
X172553428Y-99512380D01*
X172648666Y-99464761D01*
X172696285Y-99417142D01*
X172743904Y-99321904D01*
X172743904Y-99083809D01*
X172696285Y-98988571D01*
X172648666Y-98940952D01*
X172553428Y-98893333D01*
X172362952Y-98893333D01*
X172267714Y-98940952D01*
X172220095Y-98988571D01*
X172172476Y-99083809D01*
X173172476Y-99512380D02*
X173172476Y-98512380D01*
X173505809Y-99226666D01*
X173839142Y-98512380D01*
X173839142Y-99512380D01*
X174315333Y-99512380D02*
X174315333Y-98512380D01*
X174315333Y-98988571D02*
X174886761Y-98988571D01*
X174886761Y-99512380D02*
X174886761Y-98512380D01*
X175267714Y-98845714D02*
X175791523Y-98845714D01*
X175267714Y-99512380D01*
X175791523Y-99512380D01*
X163282380Y-110354857D02*
X163282380Y-110259619D01*
X163330000Y-110164380D01*
X163377619Y-110116761D01*
X163472857Y-110069142D01*
X163663333Y-110021523D01*
X163901428Y-110021523D01*
X164091904Y-110069142D01*
X164187142Y-110116761D01*
X164234761Y-110164380D01*
X164282380Y-110259619D01*
X164282380Y-110354857D01*
X164234761Y-110450095D01*
X164187142Y-110497714D01*
X164091904Y-110545333D01*
X163901428Y-110592952D01*
X163663333Y-110592952D01*
X163472857Y-110545333D01*
X163377619Y-110497714D01*
X163330000Y-110450095D01*
X163282380Y-110354857D01*
X164187142Y-109592952D02*
X164234761Y-109545333D01*
X164282380Y-109592952D01*
X164234761Y-109640571D01*
X164187142Y-109592952D01*
X164282380Y-109592952D01*
X164282380Y-108592952D02*
X164282380Y-109164380D01*
X164282380Y-108878666D02*
X163282380Y-108878666D01*
X163425238Y-108973904D01*
X163520476Y-109069142D01*
X163568095Y-109164380D01*
X163615714Y-107735809D02*
X164282380Y-107735809D01*
X163615714Y-108164380D02*
X164139523Y-108164380D01*
X164234761Y-108116761D01*
X164282380Y-108021523D01*
X164282380Y-107878666D01*
X164234761Y-107783428D01*
X164187142Y-107735809D01*
X163758571Y-106926285D02*
X163758571Y-107259619D01*
X164282380Y-107259619D02*
X163282380Y-107259619D01*
X163282380Y-106783428D01*
X158202380Y-110354857D02*
X158202380Y-110259619D01*
X158250000Y-110164380D01*
X158297619Y-110116761D01*
X158392857Y-110069142D01*
X158583333Y-110021523D01*
X158821428Y-110021523D01*
X159011904Y-110069142D01*
X159107142Y-110116761D01*
X159154761Y-110164380D01*
X159202380Y-110259619D01*
X159202380Y-110354857D01*
X159154761Y-110450095D01*
X159107142Y-110497714D01*
X159011904Y-110545333D01*
X158821428Y-110592952D01*
X158583333Y-110592952D01*
X158392857Y-110545333D01*
X158297619Y-110497714D01*
X158250000Y-110450095D01*
X158202380Y-110354857D01*
X159107142Y-109592952D02*
X159154761Y-109545333D01*
X159202380Y-109592952D01*
X159154761Y-109640571D01*
X159107142Y-109592952D01*
X159202380Y-109592952D01*
X159202380Y-108592952D02*
X159202380Y-109164380D01*
X159202380Y-108878666D02*
X158202380Y-108878666D01*
X158345238Y-108973904D01*
X158440476Y-109069142D01*
X158488095Y-109164380D01*
X158535714Y-107735809D02*
X159202380Y-107735809D01*
X158535714Y-108164380D02*
X159059523Y-108164380D01*
X159154761Y-108116761D01*
X159202380Y-108021523D01*
X159202380Y-107878666D01*
X159154761Y-107783428D01*
X159107142Y-107735809D01*
X158678571Y-106926285D02*
X158678571Y-107259619D01*
X159202380Y-107259619D02*
X158202380Y-107259619D01*
X158202380Y-106783428D01*
X153376380Y-110354857D02*
X153376380Y-110259619D01*
X153424000Y-110164380D01*
X153471619Y-110116761D01*
X153566857Y-110069142D01*
X153757333Y-110021523D01*
X153995428Y-110021523D01*
X154185904Y-110069142D01*
X154281142Y-110116761D01*
X154328761Y-110164380D01*
X154376380Y-110259619D01*
X154376380Y-110354857D01*
X154328761Y-110450095D01*
X154281142Y-110497714D01*
X154185904Y-110545333D01*
X153995428Y-110592952D01*
X153757333Y-110592952D01*
X153566857Y-110545333D01*
X153471619Y-110497714D01*
X153424000Y-110450095D01*
X153376380Y-110354857D01*
X154281142Y-109592952D02*
X154328761Y-109545333D01*
X154376380Y-109592952D01*
X154328761Y-109640571D01*
X154281142Y-109592952D01*
X154376380Y-109592952D01*
X154376380Y-108592952D02*
X154376380Y-109164380D01*
X154376380Y-108878666D02*
X153376380Y-108878666D01*
X153519238Y-108973904D01*
X153614476Y-109069142D01*
X153662095Y-109164380D01*
X153709714Y-107735809D02*
X154376380Y-107735809D01*
X153709714Y-108164380D02*
X154233523Y-108164380D01*
X154328761Y-108116761D01*
X154376380Y-108021523D01*
X154376380Y-107878666D01*
X154328761Y-107783428D01*
X154281142Y-107735809D01*
X153852571Y-106926285D02*
X153852571Y-107259619D01*
X154376380Y-107259619D02*
X153376380Y-107259619D01*
X153376380Y-106783428D01*
X148296380Y-110354857D02*
X148296380Y-110259619D01*
X148344000Y-110164380D01*
X148391619Y-110116761D01*
X148486857Y-110069142D01*
X148677333Y-110021523D01*
X148915428Y-110021523D01*
X149105904Y-110069142D01*
X149201142Y-110116761D01*
X149248761Y-110164380D01*
X149296380Y-110259619D01*
X149296380Y-110354857D01*
X149248761Y-110450095D01*
X149201142Y-110497714D01*
X149105904Y-110545333D01*
X148915428Y-110592952D01*
X148677333Y-110592952D01*
X148486857Y-110545333D01*
X148391619Y-110497714D01*
X148344000Y-110450095D01*
X148296380Y-110354857D01*
X149201142Y-109592952D02*
X149248761Y-109545333D01*
X149296380Y-109592952D01*
X149248761Y-109640571D01*
X149201142Y-109592952D01*
X149296380Y-109592952D01*
X149296380Y-108592952D02*
X149296380Y-109164380D01*
X149296380Y-108878666D02*
X148296380Y-108878666D01*
X148439238Y-108973904D01*
X148534476Y-109069142D01*
X148582095Y-109164380D01*
X148629714Y-107735809D02*
X149296380Y-107735809D01*
X148629714Y-108164380D02*
X149153523Y-108164380D01*
X149248761Y-108116761D01*
X149296380Y-108021523D01*
X149296380Y-107878666D01*
X149248761Y-107783428D01*
X149201142Y-107735809D01*
X148772571Y-106926285D02*
X148772571Y-107259619D01*
X149296380Y-107259619D02*
X148296380Y-107259619D01*
X148296380Y-106783428D01*
X169219619Y-110354857D02*
X169172000Y-110307238D01*
X169124380Y-110212000D01*
X169124380Y-109973904D01*
X169172000Y-109878666D01*
X169219619Y-109831047D01*
X169314857Y-109783428D01*
X169410095Y-109783428D01*
X169552952Y-109831047D01*
X170124380Y-110402476D01*
X170124380Y-109783428D01*
X169219619Y-109402476D02*
X169172000Y-109354857D01*
X169124380Y-109259619D01*
X169124380Y-109021523D01*
X169172000Y-108926285D01*
X169219619Y-108878666D01*
X169314857Y-108831047D01*
X169410095Y-108831047D01*
X169552952Y-108878666D01*
X170124380Y-109450095D01*
X170124380Y-108831047D01*
X169457714Y-108402476D02*
X170457714Y-108402476D01*
X169505333Y-108402476D02*
X169457714Y-108307238D01*
X169457714Y-108116761D01*
X169505333Y-108021523D01*
X169552952Y-107973904D01*
X169648190Y-107926285D01*
X169933904Y-107926285D01*
X170029142Y-107973904D01*
X170076761Y-108021523D01*
X170124380Y-108116761D01*
X170124380Y-108307238D01*
X170076761Y-108402476D01*
X169600571Y-107164380D02*
X169600571Y-107497714D01*
X170124380Y-107497714D02*
X169124380Y-107497714D01*
X169124380Y-107021523D01*
X174299619Y-110354857D02*
X174252000Y-110307238D01*
X174204380Y-110212000D01*
X174204380Y-109973904D01*
X174252000Y-109878666D01*
X174299619Y-109831047D01*
X174394857Y-109783428D01*
X174490095Y-109783428D01*
X174632952Y-109831047D01*
X175204380Y-110402476D01*
X175204380Y-109783428D01*
X174299619Y-109402476D02*
X174252000Y-109354857D01*
X174204380Y-109259619D01*
X174204380Y-109021523D01*
X174252000Y-108926285D01*
X174299619Y-108878666D01*
X174394857Y-108831047D01*
X174490095Y-108831047D01*
X174632952Y-108878666D01*
X175204380Y-109450095D01*
X175204380Y-108831047D01*
X174537714Y-108402476D02*
X175537714Y-108402476D01*
X174585333Y-108402476D02*
X174537714Y-108307238D01*
X174537714Y-108116761D01*
X174585333Y-108021523D01*
X174632952Y-107973904D01*
X174728190Y-107926285D01*
X175013904Y-107926285D01*
X175109142Y-107973904D01*
X175156761Y-108021523D01*
X175204380Y-108116761D01*
X175204380Y-108307238D01*
X175156761Y-108402476D01*
X174680571Y-107164380D02*
X174680571Y-107497714D01*
X175204380Y-107497714D02*
X174204380Y-107497714D01*
X174204380Y-107021523D01*
X192238380Y-78350857D02*
X192238380Y-78255619D01*
X192286000Y-78160380D01*
X192333619Y-78112761D01*
X192428857Y-78065142D01*
X192619333Y-78017523D01*
X192857428Y-78017523D01*
X193047904Y-78065142D01*
X193143142Y-78112761D01*
X193190761Y-78160380D01*
X193238380Y-78255619D01*
X193238380Y-78350857D01*
X193190761Y-78446095D01*
X193143142Y-78493714D01*
X193047904Y-78541333D01*
X192857428Y-78588952D01*
X192619333Y-78588952D01*
X192428857Y-78541333D01*
X192333619Y-78493714D01*
X192286000Y-78446095D01*
X192238380Y-78350857D01*
X193143142Y-77588952D02*
X193190761Y-77541333D01*
X193238380Y-77588952D01*
X193190761Y-77636571D01*
X193143142Y-77588952D01*
X193238380Y-77588952D01*
X193238380Y-76588952D02*
X193238380Y-77160380D01*
X193238380Y-76874666D02*
X192238380Y-76874666D01*
X192381238Y-76969904D01*
X192476476Y-77065142D01*
X192524095Y-77160380D01*
X192571714Y-75731809D02*
X193238380Y-75731809D01*
X192571714Y-76160380D02*
X193095523Y-76160380D01*
X193190761Y-76112761D01*
X193238380Y-76017523D01*
X193238380Y-75874666D01*
X193190761Y-75779428D01*
X193143142Y-75731809D01*
X192714571Y-74922285D02*
X192714571Y-75255619D01*
X193238380Y-75255619D02*
X192238380Y-75255619D01*
X192238380Y-74779428D01*
X187412380Y-78350857D02*
X187412380Y-78255619D01*
X187460000Y-78160380D01*
X187507619Y-78112761D01*
X187602857Y-78065142D01*
X187793333Y-78017523D01*
X188031428Y-78017523D01*
X188221904Y-78065142D01*
X188317142Y-78112761D01*
X188364761Y-78160380D01*
X188412380Y-78255619D01*
X188412380Y-78350857D01*
X188364761Y-78446095D01*
X188317142Y-78493714D01*
X188221904Y-78541333D01*
X188031428Y-78588952D01*
X187793333Y-78588952D01*
X187602857Y-78541333D01*
X187507619Y-78493714D01*
X187460000Y-78446095D01*
X187412380Y-78350857D01*
X188317142Y-77588952D02*
X188364761Y-77541333D01*
X188412380Y-77588952D01*
X188364761Y-77636571D01*
X188317142Y-77588952D01*
X188412380Y-77588952D01*
X188412380Y-76588952D02*
X188412380Y-77160380D01*
X188412380Y-76874666D02*
X187412380Y-76874666D01*
X187555238Y-76969904D01*
X187650476Y-77065142D01*
X187698095Y-77160380D01*
X187745714Y-75731809D02*
X188412380Y-75731809D01*
X187745714Y-76160380D02*
X188269523Y-76160380D01*
X188364761Y-76112761D01*
X188412380Y-76017523D01*
X188412380Y-75874666D01*
X188364761Y-75779428D01*
X188317142Y-75731809D01*
X187888571Y-74922285D02*
X187888571Y-75255619D01*
X188412380Y-75255619D02*
X187412380Y-75255619D01*
X187412380Y-74779428D01*
X182332380Y-78350857D02*
X182332380Y-78255619D01*
X182380000Y-78160380D01*
X182427619Y-78112761D01*
X182522857Y-78065142D01*
X182713333Y-78017523D01*
X182951428Y-78017523D01*
X183141904Y-78065142D01*
X183237142Y-78112761D01*
X183284761Y-78160380D01*
X183332380Y-78255619D01*
X183332380Y-78350857D01*
X183284761Y-78446095D01*
X183237142Y-78493714D01*
X183141904Y-78541333D01*
X182951428Y-78588952D01*
X182713333Y-78588952D01*
X182522857Y-78541333D01*
X182427619Y-78493714D01*
X182380000Y-78446095D01*
X182332380Y-78350857D01*
X183237142Y-77588952D02*
X183284761Y-77541333D01*
X183332380Y-77588952D01*
X183284761Y-77636571D01*
X183237142Y-77588952D01*
X183332380Y-77588952D01*
X183332380Y-76588952D02*
X183332380Y-77160380D01*
X183332380Y-76874666D02*
X182332380Y-76874666D01*
X182475238Y-76969904D01*
X182570476Y-77065142D01*
X182618095Y-77160380D01*
X182665714Y-75731809D02*
X183332380Y-75731809D01*
X182665714Y-76160380D02*
X183189523Y-76160380D01*
X183284761Y-76112761D01*
X183332380Y-76017523D01*
X183332380Y-75874666D01*
X183284761Y-75779428D01*
X183237142Y-75731809D01*
X182808571Y-74922285D02*
X182808571Y-75255619D01*
X183332380Y-75255619D02*
X182332380Y-75255619D01*
X182332380Y-74779428D01*
X162774380Y-86732857D02*
X162774380Y-86637619D01*
X162822000Y-86542380D01*
X162869619Y-86494761D01*
X162964857Y-86447142D01*
X163155333Y-86399523D01*
X163393428Y-86399523D01*
X163583904Y-86447142D01*
X163679142Y-86494761D01*
X163726761Y-86542380D01*
X163774380Y-86637619D01*
X163774380Y-86732857D01*
X163726761Y-86828095D01*
X163679142Y-86875714D01*
X163583904Y-86923333D01*
X163393428Y-86970952D01*
X163155333Y-86970952D01*
X162964857Y-86923333D01*
X162869619Y-86875714D01*
X162822000Y-86828095D01*
X162774380Y-86732857D01*
X163679142Y-85970952D02*
X163726761Y-85923333D01*
X163774380Y-85970952D01*
X163726761Y-86018571D01*
X163679142Y-85970952D01*
X163774380Y-85970952D01*
X163774380Y-84970952D02*
X163774380Y-85542380D01*
X163774380Y-85256666D02*
X162774380Y-85256666D01*
X162917238Y-85351904D01*
X163012476Y-85447142D01*
X163060095Y-85542380D01*
X163107714Y-84113809D02*
X163774380Y-84113809D01*
X163107714Y-84542380D02*
X163631523Y-84542380D01*
X163726761Y-84494761D01*
X163774380Y-84399523D01*
X163774380Y-84256666D01*
X163726761Y-84161428D01*
X163679142Y-84113809D01*
X163250571Y-83304285D02*
X163250571Y-83637619D01*
X163774380Y-83637619D02*
X162774380Y-83637619D01*
X162774380Y-83161428D01*
X143216380Y-89526857D02*
X143216380Y-89431619D01*
X143264000Y-89336380D01*
X143311619Y-89288761D01*
X143406857Y-89241142D01*
X143597333Y-89193523D01*
X143835428Y-89193523D01*
X144025904Y-89241142D01*
X144121142Y-89288761D01*
X144168761Y-89336380D01*
X144216380Y-89431619D01*
X144216380Y-89526857D01*
X144168761Y-89622095D01*
X144121142Y-89669714D01*
X144025904Y-89717333D01*
X143835428Y-89764952D01*
X143597333Y-89764952D01*
X143406857Y-89717333D01*
X143311619Y-89669714D01*
X143264000Y-89622095D01*
X143216380Y-89526857D01*
X144121142Y-88764952D02*
X144168761Y-88717333D01*
X144216380Y-88764952D01*
X144168761Y-88812571D01*
X144121142Y-88764952D01*
X144216380Y-88764952D01*
X144216380Y-87764952D02*
X144216380Y-88336380D01*
X144216380Y-88050666D02*
X143216380Y-88050666D01*
X143359238Y-88145904D01*
X143454476Y-88241142D01*
X143502095Y-88336380D01*
X143549714Y-86907809D02*
X144216380Y-86907809D01*
X143549714Y-87336380D02*
X144073523Y-87336380D01*
X144168761Y-87288761D01*
X144216380Y-87193523D01*
X144216380Y-87050666D01*
X144168761Y-86955428D01*
X144121142Y-86907809D01*
X143692571Y-86098285D02*
X143692571Y-86431619D01*
X144216380Y-86431619D02*
X143216380Y-86431619D01*
X143216380Y-85955428D01*
X143899142Y-75144380D02*
X143994380Y-75144380D01*
X144089619Y-75192000D01*
X144137238Y-75239619D01*
X144184857Y-75334857D01*
X144232476Y-75525333D01*
X144232476Y-75763428D01*
X144184857Y-75953904D01*
X144137238Y-76049142D01*
X144089619Y-76096761D01*
X143994380Y-76144380D01*
X143899142Y-76144380D01*
X143803904Y-76096761D01*
X143756285Y-76049142D01*
X143708666Y-75953904D01*
X143661047Y-75763428D01*
X143661047Y-75525333D01*
X143708666Y-75334857D01*
X143756285Y-75239619D01*
X143803904Y-75192000D01*
X143899142Y-75144380D01*
X144661047Y-76049142D02*
X144708666Y-76096761D01*
X144661047Y-76144380D01*
X144613428Y-76096761D01*
X144661047Y-76049142D01*
X144661047Y-76144380D01*
X145661047Y-76144380D02*
X145089619Y-76144380D01*
X145375333Y-76144380D02*
X145375333Y-75144380D01*
X145280095Y-75287238D01*
X145184857Y-75382476D01*
X145089619Y-75430095D01*
X146518190Y-75477714D02*
X146518190Y-76144380D01*
X146089619Y-75477714D02*
X146089619Y-76001523D01*
X146137238Y-76096761D01*
X146232476Y-76144380D01*
X146375333Y-76144380D01*
X146470571Y-76096761D01*
X146518190Y-76049142D01*
X147327714Y-75620571D02*
X146994380Y-75620571D01*
X146994380Y-76144380D02*
X146994380Y-75144380D01*
X147470571Y-75144380D01*
X145740571Y-64714380D02*
X145169142Y-64714380D01*
X145454857Y-64714380D02*
X145454857Y-63714380D01*
X145359619Y-63857238D01*
X145264380Y-63952476D01*
X145169142Y-64000095D01*
X146359619Y-63714380D02*
X146454857Y-63714380D01*
X146550095Y-63762000D01*
X146597714Y-63809619D01*
X146645333Y-63904857D01*
X146692952Y-64095333D01*
X146692952Y-64333428D01*
X146645333Y-64523904D01*
X146597714Y-64619142D01*
X146550095Y-64666761D01*
X146454857Y-64714380D01*
X146359619Y-64714380D01*
X146264380Y-64666761D01*
X146216761Y-64619142D01*
X146169142Y-64523904D01*
X146121523Y-64333428D01*
X146121523Y-64095333D01*
X146169142Y-63904857D01*
X146216761Y-63809619D01*
X146264380Y-63762000D01*
X146359619Y-63714380D01*
X147550095Y-64047714D02*
X147550095Y-64714380D01*
X147121523Y-64047714D02*
X147121523Y-64571523D01*
X147169142Y-64666761D01*
X147264380Y-64714380D01*
X147407238Y-64714380D01*
X147502476Y-64666761D01*
X147550095Y-64619142D01*
X148359619Y-64190571D02*
X148026285Y-64190571D01*
X148026285Y-64714380D02*
X148026285Y-63714380D01*
X148502476Y-63714380D01*
X125928571Y-64714380D02*
X125357142Y-64714380D01*
X125642857Y-64714380D02*
X125642857Y-63714380D01*
X125547619Y-63857238D01*
X125452380Y-63952476D01*
X125357142Y-64000095D01*
X126547619Y-63714380D02*
X126642857Y-63714380D01*
X126738095Y-63762000D01*
X126785714Y-63809619D01*
X126833333Y-63904857D01*
X126880952Y-64095333D01*
X126880952Y-64333428D01*
X126833333Y-64523904D01*
X126785714Y-64619142D01*
X126738095Y-64666761D01*
X126642857Y-64714380D01*
X126547619Y-64714380D01*
X126452380Y-64666761D01*
X126404761Y-64619142D01*
X126357142Y-64523904D01*
X126309523Y-64333428D01*
X126309523Y-64095333D01*
X126357142Y-63904857D01*
X126404761Y-63809619D01*
X126452380Y-63762000D01*
X126547619Y-63714380D01*
X127738095Y-64047714D02*
X127738095Y-64714380D01*
X127309523Y-64047714D02*
X127309523Y-64571523D01*
X127357142Y-64666761D01*
X127452380Y-64714380D01*
X127595238Y-64714380D01*
X127690476Y-64666761D01*
X127738095Y-64619142D01*
X128547619Y-64190571D02*
X128214285Y-64190571D01*
X128214285Y-64714380D02*
X128214285Y-63714380D01*
X128690476Y-63714380D01*
X135072380Y-78414476D02*
X135072380Y-78985904D01*
X135072380Y-78700190D02*
X134072380Y-78700190D01*
X134215238Y-78795428D01*
X134310476Y-78890666D01*
X134358095Y-78985904D01*
X134072380Y-77795428D02*
X134072380Y-77700190D01*
X134120000Y-77604952D01*
X134167619Y-77557333D01*
X134262857Y-77509714D01*
X134453333Y-77462095D01*
X134691428Y-77462095D01*
X134881904Y-77509714D01*
X134977142Y-77557333D01*
X135024761Y-77604952D01*
X135072380Y-77700190D01*
X135072380Y-77795428D01*
X135024761Y-77890666D01*
X134977142Y-77938285D01*
X134881904Y-77985904D01*
X134691428Y-78033523D01*
X134453333Y-78033523D01*
X134262857Y-77985904D01*
X134167619Y-77938285D01*
X134120000Y-77890666D01*
X134072380Y-77795428D01*
X135072380Y-77033523D02*
X134072380Y-77033523D01*
X135072380Y-76462095D02*
X134500952Y-76890666D01*
X134072380Y-76462095D02*
X134643809Y-77033523D01*
X131516380Y-78414476D02*
X131516380Y-78985904D01*
X131516380Y-78700190D02*
X130516380Y-78700190D01*
X130659238Y-78795428D01*
X130754476Y-78890666D01*
X130802095Y-78985904D01*
X130516380Y-77795428D02*
X130516380Y-77700190D01*
X130564000Y-77604952D01*
X130611619Y-77557333D01*
X130706857Y-77509714D01*
X130897333Y-77462095D01*
X131135428Y-77462095D01*
X131325904Y-77509714D01*
X131421142Y-77557333D01*
X131468761Y-77604952D01*
X131516380Y-77700190D01*
X131516380Y-77795428D01*
X131468761Y-77890666D01*
X131421142Y-77938285D01*
X131325904Y-77985904D01*
X131135428Y-78033523D01*
X130897333Y-78033523D01*
X130706857Y-77985904D01*
X130611619Y-77938285D01*
X130564000Y-77890666D01*
X130516380Y-77795428D01*
X131516380Y-77033523D02*
X130516380Y-77033523D01*
X131516380Y-76462095D02*
X130944952Y-76890666D01*
X130516380Y-76462095D02*
X131087809Y-77033523D01*
X124658380Y-81390857D02*
X124658380Y-81962285D01*
X124658380Y-81676571D02*
X123658380Y-81676571D01*
X123801238Y-81771809D01*
X123896476Y-81867047D01*
X123944095Y-81962285D01*
X124658380Y-80962285D02*
X123658380Y-80962285D01*
X124658380Y-80390857D01*
X123658380Y-80390857D01*
X123991714Y-79486095D02*
X124658380Y-79486095D01*
X123610761Y-79724190D02*
X124325047Y-79962285D01*
X124325047Y-79343238D01*
X123658380Y-78771809D02*
X123658380Y-78676571D01*
X123706000Y-78581333D01*
X123753619Y-78533714D01*
X123848857Y-78486095D01*
X124039333Y-78438476D01*
X124277428Y-78438476D01*
X124467904Y-78486095D01*
X124563142Y-78533714D01*
X124610761Y-78581333D01*
X124658380Y-78676571D01*
X124658380Y-78771809D01*
X124610761Y-78867047D01*
X124563142Y-78914666D01*
X124467904Y-78962285D01*
X124277428Y-79009904D01*
X124039333Y-79009904D01*
X123848857Y-78962285D01*
X123753619Y-78914666D01*
X123706000Y-78867047D01*
X123658380Y-78771809D01*
X123658380Y-77819428D02*
X123658380Y-77724190D01*
X123706000Y-77628952D01*
X123753619Y-77581333D01*
X123848857Y-77533714D01*
X124039333Y-77486095D01*
X124277428Y-77486095D01*
X124467904Y-77533714D01*
X124563142Y-77581333D01*
X124610761Y-77628952D01*
X124658380Y-77724190D01*
X124658380Y-77819428D01*
X124610761Y-77914666D01*
X124563142Y-77962285D01*
X124467904Y-78009904D01*
X124277428Y-78057523D01*
X124039333Y-78057523D01*
X123848857Y-78009904D01*
X123753619Y-77962285D01*
X123706000Y-77914666D01*
X123658380Y-77819428D01*
X123991714Y-76628952D02*
X124658380Y-76628952D01*
X123610761Y-76867047D02*
X124325047Y-77105142D01*
X124325047Y-76486095D01*
X103322380Y-111537333D02*
X102322380Y-111537333D01*
X103322380Y-110489714D02*
X102846190Y-110823047D01*
X103322380Y-111061142D02*
X102322380Y-111061142D01*
X102322380Y-110680190D01*
X102370000Y-110584952D01*
X102417619Y-110537333D01*
X102512857Y-110489714D01*
X102655714Y-110489714D01*
X102750952Y-110537333D01*
X102798571Y-110584952D01*
X102846190Y-110680190D01*
X102846190Y-111061142D01*
X102798571Y-109727809D02*
X102798571Y-110061142D01*
X103322380Y-110061142D02*
X102322380Y-110061142D01*
X102322380Y-109584952D01*
X103322380Y-109204000D02*
X102322380Y-109204000D01*
X102322380Y-108965904D01*
X102370000Y-108823047D01*
X102465238Y-108727809D01*
X102560476Y-108680190D01*
X102750952Y-108632571D01*
X102893809Y-108632571D01*
X103084285Y-108680190D01*
X103179523Y-108727809D01*
X103274761Y-108823047D01*
X103322380Y-108965904D01*
X103322380Y-109204000D01*
X103322380Y-108156380D02*
X103322380Y-107965904D01*
X103274761Y-107870666D01*
X103227142Y-107823047D01*
X103084285Y-107727809D01*
X102893809Y-107680190D01*
X102512857Y-107680190D01*
X102417619Y-107727809D01*
X102370000Y-107775428D01*
X102322380Y-107870666D01*
X102322380Y-108061142D01*
X102370000Y-108156380D01*
X102417619Y-108204000D01*
X102512857Y-108251619D01*
X102750952Y-108251619D01*
X102846190Y-108204000D01*
X102893809Y-108156380D01*
X102941428Y-108061142D01*
X102941428Y-107870666D01*
X102893809Y-107775428D01*
X102846190Y-107727809D01*
X102750952Y-107680190D01*
X102322380Y-107061142D02*
X102322380Y-106965904D01*
X102370000Y-106870666D01*
X102417619Y-106823047D01*
X102512857Y-106775428D01*
X102703333Y-106727809D01*
X102941428Y-106727809D01*
X103131904Y-106775428D01*
X103227142Y-106823047D01*
X103274761Y-106870666D01*
X103322380Y-106965904D01*
X103322380Y-107061142D01*
X103274761Y-107156380D01*
X103227142Y-107204000D01*
X103131904Y-107251619D01*
X102941428Y-107299238D01*
X102703333Y-107299238D01*
X102512857Y-107251619D01*
X102417619Y-107204000D01*
X102370000Y-107156380D01*
X102322380Y-107061142D01*
X103322380Y-105775428D02*
X103322380Y-106346857D01*
X103322380Y-106061142D02*
X102322380Y-106061142D01*
X102465238Y-106156380D01*
X102560476Y-106251619D01*
X102608095Y-106346857D01*
X102655714Y-104918285D02*
X103322380Y-104918285D01*
X102274761Y-105156380D02*
X102989047Y-105394476D01*
X102989047Y-104775428D01*
X102751142Y-102068380D02*
X102846380Y-102068380D01*
X102941619Y-102116000D01*
X102989238Y-102163619D01*
X103036857Y-102258857D01*
X103084476Y-102449333D01*
X103084476Y-102687428D01*
X103036857Y-102877904D01*
X102989238Y-102973142D01*
X102941619Y-103020761D01*
X102846380Y-103068380D01*
X102751142Y-103068380D01*
X102655904Y-103020761D01*
X102608285Y-102973142D01*
X102560666Y-102877904D01*
X102513047Y-102687428D01*
X102513047Y-102449333D01*
X102560666Y-102258857D01*
X102608285Y-102163619D01*
X102655904Y-102116000D01*
X102751142Y-102068380D01*
X103513047Y-102973142D02*
X103560666Y-103020761D01*
X103513047Y-103068380D01*
X103465428Y-103020761D01*
X103513047Y-102973142D01*
X103513047Y-103068380D01*
X104513047Y-103068380D02*
X103941619Y-103068380D01*
X104227333Y-103068380D02*
X104227333Y-102068380D01*
X104132095Y-102211238D01*
X104036857Y-102306476D01*
X103941619Y-102354095D01*
X105370190Y-102401714D02*
X105370190Y-103068380D01*
X104941619Y-102401714D02*
X104941619Y-102925523D01*
X104989238Y-103020761D01*
X105084476Y-103068380D01*
X105227333Y-103068380D01*
X105322571Y-103020761D01*
X105370190Y-102973142D01*
X106179714Y-102544571D02*
X105846380Y-102544571D01*
X105846380Y-103068380D02*
X105846380Y-102068380D01*
X106322571Y-102068380D01*
X102560380Y-95860857D02*
X102560380Y-96337047D01*
X101560380Y-96337047D01*
X102560380Y-95527523D02*
X101560380Y-95527523D01*
X102274666Y-95194190D01*
X101560380Y-94860857D01*
X102560380Y-94860857D01*
X101560380Y-94479904D02*
X101560380Y-93860857D01*
X101941333Y-94194190D01*
X101941333Y-94051333D01*
X101988952Y-93956095D01*
X102036571Y-93908476D01*
X102131809Y-93860857D01*
X102369904Y-93860857D01*
X102465142Y-93908476D01*
X102512761Y-93956095D01*
X102560380Y-94051333D01*
X102560380Y-94337047D01*
X102512761Y-94432285D01*
X102465142Y-94479904D01*
X101560380Y-92956095D02*
X101560380Y-93432285D01*
X102036571Y-93479904D01*
X101988952Y-93432285D01*
X101941333Y-93337047D01*
X101941333Y-93098952D01*
X101988952Y-93003714D01*
X102036571Y-92956095D01*
X102131809Y-92908476D01*
X102369904Y-92908476D01*
X102465142Y-92956095D01*
X102512761Y-93003714D01*
X102560380Y-93098952D01*
X102560380Y-93337047D01*
X102512761Y-93432285D01*
X102465142Y-93479904D01*
X101988952Y-92337047D02*
X101941333Y-92432285D01*
X101893714Y-92479904D01*
X101798476Y-92527523D01*
X101750857Y-92527523D01*
X101655619Y-92479904D01*
X101608000Y-92432285D01*
X101560380Y-92337047D01*
X101560380Y-92146571D01*
X101608000Y-92051333D01*
X101655619Y-92003714D01*
X101750857Y-91956095D01*
X101798476Y-91956095D01*
X101893714Y-92003714D01*
X101941333Y-92051333D01*
X101988952Y-92146571D01*
X101988952Y-92337047D01*
X102036571Y-92432285D01*
X102084190Y-92479904D01*
X102179428Y-92527523D01*
X102369904Y-92527523D01*
X102465142Y-92479904D01*
X102512761Y-92432285D01*
X102560380Y-92337047D01*
X102560380Y-92146571D01*
X102512761Y-92051333D01*
X102465142Y-92003714D01*
X102369904Y-91956095D01*
X102179428Y-91956095D01*
X102084190Y-92003714D01*
X102036571Y-92051333D01*
X101988952Y-92146571D01*
X102274666Y-91575142D02*
X102274666Y-91098952D01*
X102560380Y-91670380D02*
X101560380Y-91337047D01*
X102560380Y-91003714D01*
X102560380Y-90670380D02*
X101560380Y-90670380D01*
X102560380Y-90098952D01*
X101560380Y-90098952D01*
X133897714Y-103957380D02*
X133326285Y-103957380D01*
X133612000Y-103957380D02*
X133612000Y-102957380D01*
X133516761Y-103100238D01*
X133421523Y-103195476D01*
X133326285Y-103243095D01*
X134326285Y-103957380D02*
X134326285Y-102957380D01*
X134897714Y-103957380D02*
X134469142Y-103385952D01*
X134897714Y-102957380D02*
X134326285Y-103528809D01*
X134151714Y-92019380D02*
X133580285Y-92019380D01*
X133866000Y-92019380D02*
X133866000Y-91019380D01*
X133770761Y-91162238D01*
X133675523Y-91257476D01*
X133580285Y-91305095D01*
X134580285Y-92019380D02*
X134580285Y-91019380D01*
X135151714Y-92019380D02*
X134723142Y-91447952D01*
X135151714Y-91019380D02*
X134580285Y-91590809D01*
X127563619Y-124428095D02*
X127516000Y-124380476D01*
X127468380Y-124285238D01*
X127468380Y-124047142D01*
X127516000Y-123951904D01*
X127563619Y-123904285D01*
X127658857Y-123856666D01*
X127754095Y-123856666D01*
X127896952Y-123904285D01*
X128468380Y-124475714D01*
X128468380Y-123856666D01*
X127563619Y-123475714D02*
X127516000Y-123428095D01*
X127468380Y-123332857D01*
X127468380Y-123094761D01*
X127516000Y-122999523D01*
X127563619Y-122951904D01*
X127658857Y-122904285D01*
X127754095Y-122904285D01*
X127896952Y-122951904D01*
X128468380Y-123523333D01*
X128468380Y-122904285D01*
X127468380Y-122285238D02*
X127468380Y-122190000D01*
X127516000Y-122094761D01*
X127563619Y-122047142D01*
X127658857Y-121999523D01*
X127849333Y-121951904D01*
X128087428Y-121951904D01*
X128277904Y-121999523D01*
X128373142Y-122047142D01*
X128420761Y-122094761D01*
X128468380Y-122190000D01*
X128468380Y-122285238D01*
X128420761Y-122380476D01*
X128373142Y-122428095D01*
X128277904Y-122475714D01*
X128087428Y-122523333D01*
X127849333Y-122523333D01*
X127658857Y-122475714D01*
X127563619Y-122428095D01*
X127516000Y-122380476D01*
X127468380Y-122285238D01*
X136707619Y-124428095D02*
X136660000Y-124380476D01*
X136612380Y-124285238D01*
X136612380Y-124047142D01*
X136660000Y-123951904D01*
X136707619Y-123904285D01*
X136802857Y-123856666D01*
X136898095Y-123856666D01*
X137040952Y-123904285D01*
X137612380Y-124475714D01*
X137612380Y-123856666D01*
X136707619Y-123475714D02*
X136660000Y-123428095D01*
X136612380Y-123332857D01*
X136612380Y-123094761D01*
X136660000Y-122999523D01*
X136707619Y-122951904D01*
X136802857Y-122904285D01*
X136898095Y-122904285D01*
X137040952Y-122951904D01*
X137612380Y-123523333D01*
X137612380Y-122904285D01*
X136612380Y-122285238D02*
X136612380Y-122190000D01*
X136660000Y-122094761D01*
X136707619Y-122047142D01*
X136802857Y-121999523D01*
X136993333Y-121951904D01*
X137231428Y-121951904D01*
X137421904Y-121999523D01*
X137517142Y-122047142D01*
X137564761Y-122094761D01*
X137612380Y-122190000D01*
X137612380Y-122285238D01*
X137564761Y-122380476D01*
X137517142Y-122428095D01*
X137421904Y-122475714D01*
X137231428Y-122523333D01*
X136993333Y-122523333D01*
X136802857Y-122475714D01*
X136707619Y-122428095D01*
X136660000Y-122380476D01*
X136612380Y-122285238D01*
X127563619Y-124428095D02*
X127516000Y-124380476D01*
X127468380Y-124285238D01*
X127468380Y-124047142D01*
X127516000Y-123951904D01*
X127563619Y-123904285D01*
X127658857Y-123856666D01*
X127754095Y-123856666D01*
X127896952Y-123904285D01*
X128468380Y-124475714D01*
X128468380Y-123856666D01*
X127563619Y-123475714D02*
X127516000Y-123428095D01*
X127468380Y-123332857D01*
X127468380Y-123094761D01*
X127516000Y-122999523D01*
X127563619Y-122951904D01*
X127658857Y-122904285D01*
X127754095Y-122904285D01*
X127896952Y-122951904D01*
X128468380Y-123523333D01*
X128468380Y-122904285D01*
X127468380Y-122285238D02*
X127468380Y-122190000D01*
X127516000Y-122094761D01*
X127563619Y-122047142D01*
X127658857Y-121999523D01*
X127849333Y-121951904D01*
X128087428Y-121951904D01*
X128277904Y-121999523D01*
X128373142Y-122047142D01*
X128420761Y-122094761D01*
X128468380Y-122190000D01*
X128468380Y-122285238D01*
X128420761Y-122380476D01*
X128373142Y-122428095D01*
X128277904Y-122475714D01*
X128087428Y-122523333D01*
X127849333Y-122523333D01*
X127658857Y-122475714D01*
X127563619Y-122428095D01*
X127516000Y-122380476D01*
X127468380Y-122285238D01*
X118521219Y-124428095D02*
X118473600Y-124380476D01*
X118425980Y-124285238D01*
X118425980Y-124047142D01*
X118473600Y-123951904D01*
X118521219Y-123904285D01*
X118616457Y-123856666D01*
X118711695Y-123856666D01*
X118854552Y-123904285D01*
X119425980Y-124475714D01*
X119425980Y-123856666D01*
X118521219Y-123475714D02*
X118473600Y-123428095D01*
X118425980Y-123332857D01*
X118425980Y-123094761D01*
X118473600Y-122999523D01*
X118521219Y-122951904D01*
X118616457Y-122904285D01*
X118711695Y-122904285D01*
X118854552Y-122951904D01*
X119425980Y-123523333D01*
X119425980Y-122904285D01*
X118425980Y-122285238D02*
X118425980Y-122190000D01*
X118473600Y-122094761D01*
X118521219Y-122047142D01*
X118616457Y-121999523D01*
X118806933Y-121951904D01*
X119045028Y-121951904D01*
X119235504Y-121999523D01*
X119330742Y-122047142D01*
X119378361Y-122094761D01*
X119425980Y-122190000D01*
X119425980Y-122285238D01*
X119378361Y-122380476D01*
X119330742Y-122428095D01*
X119235504Y-122475714D01*
X119045028Y-122523333D01*
X118806933Y-122523333D01*
X118616457Y-122475714D01*
X118521219Y-122428095D01*
X118473600Y-122380476D01*
X118425980Y-122285238D01*
X101174847Y-126528580D02*
X101174847Y-127338104D01*
X101222466Y-127433342D01*
X101270085Y-127480961D01*
X101365323Y-127528580D01*
X101555800Y-127528580D01*
X101651038Y-127480961D01*
X101698657Y-127433342D01*
X101746276Y-127338104D01*
X101746276Y-126528580D01*
X102174847Y-127480961D02*
X102317704Y-127528580D01*
X102555800Y-127528580D01*
X102651038Y-127480961D01*
X102698657Y-127433342D01*
X102746276Y-127338104D01*
X102746276Y-127242866D01*
X102698657Y-127147628D01*
X102651038Y-127100009D01*
X102555800Y-127052390D01*
X102365323Y-127004771D01*
X102270085Y-126957152D01*
X102222466Y-126909533D01*
X102174847Y-126814295D01*
X102174847Y-126719057D01*
X102222466Y-126623819D01*
X102270085Y-126576200D01*
X102365323Y-126528580D01*
X102603419Y-126528580D01*
X102746276Y-126576200D01*
X103508180Y-127004771D02*
X103651038Y-127052390D01*
X103698657Y-127100009D01*
X103746276Y-127195247D01*
X103746276Y-127338104D01*
X103698657Y-127433342D01*
X103651038Y-127480961D01*
X103555800Y-127528580D01*
X103174847Y-127528580D01*
X103174847Y-126528580D01*
X103508180Y-126528580D01*
X103603419Y-126576200D01*
X103651038Y-126623819D01*
X103698657Y-126719057D01*
X103698657Y-126814295D01*
X103651038Y-126909533D01*
X103603419Y-126957152D01*
X103508180Y-127004771D01*
X103174847Y-127004771D01*
X104174847Y-127147628D02*
X104936752Y-127147628D01*
X105746276Y-127004771D02*
X105889133Y-127052390D01*
X105936752Y-127100009D01*
X105984371Y-127195247D01*
X105984371Y-127338104D01*
X105936752Y-127433342D01*
X105889133Y-127480961D01*
X105793895Y-127528580D01*
X105412942Y-127528580D01*
X105412942Y-126528580D01*
X105746276Y-126528580D01*
X105841514Y-126576200D01*
X105889133Y-126623819D01*
X105936752Y-126719057D01*
X105936752Y-126814295D01*
X105889133Y-126909533D01*
X105841514Y-126957152D01*
X105746276Y-127004771D01*
X105412942Y-127004771D01*
D13*
G04 #@! TO.C,U2*
X125222000Y-94488000D02*
G75*
G03X125222000Y-94488000I-127000J0D01*
G01*
D11*
X126229000Y-96820000D02*
X125654000Y-96820000D01*
X126229000Y-102570000D02*
X125579000Y-102570000D01*
X115579000Y-102570000D02*
X116229000Y-102570000D01*
X115579000Y-96820000D02*
X116229000Y-96820000D01*
X126229000Y-96820000D02*
X126229000Y-102570000D01*
X115579000Y-96820000D02*
X115579000Y-102570000D01*
G04 #@! TO.C,TB1*
X122000000Y-63000000D02*
X98000000Y-63000000D01*
X98000000Y-63000000D02*
X98000000Y-83500000D01*
X98000000Y-83500000D02*
X122000000Y-83500000D01*
X122000000Y-83500000D02*
X122000000Y-63000000D01*
G04 #@! TO.C,P3*
X165000000Y-72000000D02*
X177000000Y-72000000D01*
X165050000Y-72000000D02*
X159000000Y-72000000D01*
X177000000Y-71250000D02*
X181500000Y-71250000D01*
X159000000Y-72000000D02*
X159000000Y-62750000D01*
X177000000Y-72000000D02*
X177000000Y-71250000D01*
X181500000Y-71250000D02*
X181500000Y-72000000D01*
X181500000Y-72000000D02*
X199500000Y-72000000D01*
X199500000Y-72000000D02*
X199500000Y-62750000D01*
X199500000Y-62750000D02*
X159000000Y-62750000D01*
D13*
G04 #@! TO.C,U1*
X134714000Y-71532000D02*
G75*
G03X134714000Y-71532000I-254000J0D01*
G01*
D11*
X133500000Y-71500000D02*
X131000000Y-71500000D01*
X135500000Y-71500000D02*
X137000000Y-71500000D01*
X135500000Y-71500000D02*
X135500000Y-70500000D01*
X133500000Y-71500000D02*
X133500000Y-70500000D01*
X131000000Y-71500000D02*
X131000000Y-63000000D01*
X131000000Y-63000000D02*
X143000000Y-63000000D01*
X143000000Y-63000000D02*
X143000000Y-71500000D01*
X143000000Y-71500000D02*
X137000000Y-71500000D01*
D13*
G04 #@! TO.C,IC1*
X152254000Y-99032000D02*
G75*
G03X152254000Y-99032000I-254000J0D01*
G01*
D11*
X149705000Y-96865000D02*
X150975000Y-96865000D01*
X149705000Y-89515000D02*
X150975000Y-89515000D01*
X187315000Y-89515000D02*
X186045000Y-89515000D01*
X187315000Y-96865000D02*
X186045000Y-96865000D01*
X149705000Y-96865000D02*
X149705000Y-89515000D01*
X187315000Y-96865000D02*
X187315000Y-89515000D01*
D13*
G04 #@! TO.C,U3*
X107778000Y-97000000D02*
G75*
G03X107778000Y-97000000I-254000J0D01*
G01*
D11*
X105865000Y-99295000D02*
X105865000Y-98025000D01*
X98515000Y-99295000D02*
X98515000Y-98025000D01*
X98515000Y-87085000D02*
X98515000Y-88355000D01*
X105865000Y-87085000D02*
X105865000Y-88355000D01*
X105865000Y-99295000D02*
X98515000Y-99295000D01*
X105865000Y-87085000D02*
X98515000Y-87085000D01*
D13*
G04 #@! TO.C,Q1*
X97730000Y-107000000D02*
G75*
G03X97730000Y-107000000I-254000J0D01*
G01*
D11*
X99135000Y-104705000D02*
X99135000Y-105975000D01*
X106485000Y-104705000D02*
X106485000Y-105975000D01*
X106485000Y-111835000D02*
X106485000Y-110565000D01*
X99135000Y-111835000D02*
X99135000Y-110565000D01*
X99135000Y-104705000D02*
X106485000Y-104705000D01*
X99135000Y-111835000D02*
X106485000Y-111835000D01*
G04 #@! TO.C,D2*
X129785112Y-128524904D02*
G75*
G03X129770000Y-125500000I2484888J1524904D01*
G01*
X129770000Y-128500000D02*
X129770000Y-125500000D01*
G04 #@! TO.C,D3*
X120785112Y-128524904D02*
G75*
G03X120770000Y-125500000I2484888J1524904D01*
G01*
X120770000Y-128500000D02*
X120770000Y-125500000D01*
G04 #@! TO.C,D4*
X111785112Y-128524904D02*
G75*
G03X111770000Y-125500000I2484888J1524904D01*
G01*
X111770000Y-128500000D02*
X111770000Y-125500000D01*
G04 #@! TO.C,P1*
X97536000Y-131572000D02*
X97536000Y-123444000D01*
X109728000Y-131572000D02*
X109728000Y-123444000D01*
X109728000Y-131572000D02*
X97536000Y-131572000D01*
X97536000Y-115062000D02*
X97536000Y-120142000D01*
X109728000Y-115062000D02*
X109728000Y-120142000D01*
X97536000Y-115062000D02*
X109728000Y-115062000D01*
G04 #@! TO.C,TB5*
X172000000Y-130000000D02*
X185700000Y-130000000D01*
X185700000Y-130000000D02*
X185700000Y-116000000D01*
X185700000Y-116000000D02*
X172000000Y-116000000D01*
X172000000Y-116000000D02*
X172000000Y-130000000D01*
G04 #@! TO.C,TB2*
X188000000Y-130000000D02*
X201700000Y-130000000D01*
X201700000Y-130000000D02*
X201700000Y-116000000D01*
X201700000Y-116000000D02*
X188000000Y-116000000D01*
X188000000Y-116000000D02*
X188000000Y-130000000D01*
G04 #@! TO.C,TB4*
X156000000Y-130000000D02*
X169700000Y-130000000D01*
X169700000Y-130000000D02*
X169700000Y-116000000D01*
X169700000Y-116000000D02*
X156000000Y-116000000D01*
X156000000Y-116000000D02*
X156000000Y-130000000D01*
G04 #@! TO.C,TB3*
X140000000Y-130000000D02*
X153700000Y-130000000D01*
X153700000Y-130000000D02*
X153700000Y-116000000D01*
X153700000Y-116000000D02*
X140000000Y-116000000D01*
X140000000Y-116000000D02*
X140000000Y-130000000D01*
G04 #@! TO.C,SW2*
X200798820Y-113001260D02*
X189201180Y-113001260D01*
X189201180Y-102998740D02*
X200798820Y-102998740D01*
D14*
X199511040Y-106199140D02*
X198108960Y-106199140D01*
X199511040Y-109800860D02*
X199511040Y-106199140D01*
X198108960Y-109800860D02*
X199511040Y-109800860D01*
X198108960Y-106199140D02*
X198108960Y-109800860D01*
X198108960Y-107799340D02*
X199511040Y-107799340D01*
X198108960Y-107598680D02*
X199511040Y-107598680D01*
X198108960Y-107199900D02*
X199511040Y-107199900D01*
X198108960Y-107400560D02*
X199511040Y-107400560D01*
X198108960Y-106600460D02*
X199511040Y-106600460D01*
X198108960Y-106399800D02*
X199511040Y-106399800D01*
X198108960Y-106798580D02*
X199511040Y-106798580D01*
X198108960Y-106999240D02*
X199511040Y-106999240D01*
X191891040Y-106199140D02*
X190488960Y-106199140D01*
X191891040Y-109800860D02*
X191891040Y-106199140D01*
X190488960Y-109800860D02*
X191891040Y-109800860D01*
X190488960Y-106199140D02*
X190488960Y-109800860D01*
X190488960Y-107799340D02*
X191891040Y-107799340D01*
X190488960Y-107598680D02*
X191891040Y-107598680D01*
X190488960Y-107199900D02*
X191891040Y-107199900D01*
X190488960Y-107400560D02*
X191891040Y-107400560D01*
X190488960Y-106600460D02*
X191891040Y-106600460D01*
X190488960Y-106399800D02*
X191891040Y-106399800D01*
X190488960Y-106798580D02*
X191891040Y-106798580D01*
X190488960Y-106999240D02*
X191891040Y-106999240D01*
X194431040Y-106199140D02*
X193028960Y-106199140D01*
X194431040Y-109800860D02*
X194431040Y-106199140D01*
X193028960Y-109800860D02*
X194431040Y-109800860D01*
X193028960Y-106199140D02*
X193028960Y-109800860D01*
X193028960Y-107799340D02*
X194431040Y-107799340D01*
X193028960Y-107598680D02*
X194431040Y-107598680D01*
X193028960Y-107199900D02*
X194431040Y-107199900D01*
X193028960Y-107400560D02*
X194431040Y-107400560D01*
X193028960Y-106600460D02*
X194431040Y-106600460D01*
X193028960Y-106399800D02*
X194431040Y-106399800D01*
X193028960Y-106798580D02*
X194431040Y-106798580D01*
X193028960Y-106999240D02*
X194431040Y-106999240D01*
X195568960Y-106999240D02*
X196971040Y-106999240D01*
X195568960Y-106798580D02*
X196971040Y-106798580D01*
X195568960Y-106399800D02*
X196971040Y-106399800D01*
X195568960Y-106600460D02*
X196971040Y-106600460D01*
X195568960Y-107400560D02*
X196971040Y-107400560D01*
X195568960Y-107199900D02*
X196971040Y-107199900D01*
X195568960Y-107598680D02*
X196971040Y-107598680D01*
X195568960Y-107799340D02*
X196971040Y-107799340D01*
X195568960Y-106199140D02*
X195568960Y-109800860D01*
X195568960Y-109800860D02*
X196971040Y-109800860D01*
X196971040Y-109800860D02*
X196971040Y-106199140D01*
X196971040Y-106199140D02*
X195568960Y-106199140D01*
D11*
X200798820Y-103001280D02*
X200798820Y-113001260D01*
X189201180Y-113001260D02*
X189201180Y-102998740D01*
G04 #@! TO.C,P2*
X204500000Y-74000000D02*
X204500000Y-80500000D01*
X214250000Y-90000000D02*
X204500000Y-90000000D01*
X214250000Y-74000000D02*
X214250000Y-90000000D01*
X204500000Y-74000000D02*
X214250000Y-74000000D01*
X206000000Y-82000000D02*
X206000000Y-80500000D01*
X206000000Y-80500000D02*
X204500000Y-80500000D01*
X206000000Y-82000000D02*
X206000000Y-83500000D01*
X206000000Y-83500000D02*
X204500000Y-83500000D01*
X204500000Y-83500000D02*
X204500000Y-90000000D01*
G04 #@! TO.C,R5*
X210230000Y-105480000D02*
X210230000Y-100400000D01*
X210230000Y-100400000D02*
X212770000Y-100400000D01*
X212770000Y-100400000D02*
X212770000Y-105480000D01*
X212770000Y-105480000D02*
X210230000Y-105480000D01*
G04 #@! TO.C,R7*
X133207760Y-80314800D02*
X133207760Y-75234800D01*
X133207760Y-75234800D02*
X135747760Y-75234800D01*
X135747760Y-75234800D02*
X135747760Y-80314800D01*
X135747760Y-80314800D02*
X133207760Y-80314800D01*
G04 #@! TO.C,R6*
X132270000Y-75270000D02*
X132270000Y-80350000D01*
X132270000Y-80350000D02*
X129730000Y-80350000D01*
X129730000Y-80350000D02*
X129730000Y-75270000D01*
X129730000Y-75270000D02*
X132270000Y-75270000D01*
G04 #@! TO.C,R9*
X137033000Y-92837000D02*
X131953000Y-92837000D01*
X131953000Y-92837000D02*
X131953000Y-90297000D01*
X131953000Y-90297000D02*
X137033000Y-90297000D01*
X137033000Y-90297000D02*
X137033000Y-92837000D01*
G04 #@! TO.C,R8*
X137033000Y-104775000D02*
X131953000Y-104775000D01*
X131953000Y-104775000D02*
X131953000Y-102235000D01*
X131953000Y-102235000D02*
X137033000Y-102235000D01*
X137033000Y-102235000D02*
X137033000Y-104775000D01*
G04 #@! TO.C,R3*
X135730000Y-125730000D02*
X135730000Y-120650000D01*
X135730000Y-120650000D02*
X138270000Y-120650000D01*
X138270000Y-120650000D02*
X138270000Y-125730000D01*
X138270000Y-125730000D02*
X135730000Y-125730000D01*
G04 #@! TO.C,R4*
X126730000Y-125730000D02*
X126730000Y-120650000D01*
X126730000Y-120650000D02*
X129270000Y-120650000D01*
X129270000Y-120650000D02*
X129270000Y-125730000D01*
X129270000Y-125730000D02*
X126730000Y-125730000D01*
G04 #@! TO.C,R2*
X117730000Y-125730000D02*
X117730000Y-120650000D01*
X117730000Y-120650000D02*
X120270000Y-120650000D01*
X120270000Y-120650000D02*
X120270000Y-125730000D01*
X120270000Y-125730000D02*
X117730000Y-125730000D01*
G04 #@! TO.C,SW1*
X210265564Y-115250000D02*
G75*
G03X210265564Y-115250000I-2015564J0D01*
G01*
X206000000Y-118500000D02*
X210500000Y-118500000D01*
X204750000Y-114500000D02*
X204750000Y-116000000D01*
X210500000Y-112000000D02*
X206000000Y-112000000D01*
X211750000Y-116000000D02*
X211750000Y-114500000D01*
G04 #@! TO.C,D1*
X126502540Y-81620000D02*
X126502540Y-82636000D01*
X126502540Y-76794000D02*
X126502540Y-75524000D01*
X127772540Y-77048000D02*
X125232540Y-77048000D01*
X127772540Y-77302000D02*
X125232540Y-77302000D01*
X127772540Y-77556000D02*
X125232540Y-77556000D01*
X127772540Y-76794000D02*
X125232540Y-76794000D01*
X127772540Y-77810000D02*
X125232540Y-76540000D01*
X127772540Y-76540000D02*
X125232540Y-77810000D01*
X127772540Y-77810000D02*
X125232540Y-77810000D01*
X127772540Y-77175000D02*
X125232540Y-77175000D01*
X125232540Y-76540000D02*
X127772540Y-76540000D01*
X127772540Y-76540000D02*
X127772540Y-81620000D01*
X127772540Y-81620000D02*
X125232540Y-81620000D01*
X125232540Y-81620000D02*
X125232540Y-76540000D01*
G04 #@! TO.C,Y1*
X170666000Y-100214000D02*
G75*
G03X170666000Y-104786000I0J-2286000D01*
G01*
X176254000Y-104786000D02*
G75*
G03X176254000Y-100214000I0J2286000D01*
G01*
X176254000Y-100214000D02*
X170666000Y-100214000D01*
X176254000Y-104786000D02*
X170666000Y-104786000D01*
G04 #@! TO.C,C1*
X110367000Y-93238000D02*
X113367000Y-93238000D01*
X113367000Y-95738000D02*
X110367000Y-95738000D01*
G04 #@! TO.C,C2*
X164750000Y-110250000D02*
X164750000Y-107250000D01*
X167250000Y-107250000D02*
X167250000Y-110250000D01*
G04 #@! TO.C,C3*
X119249000Y-115804000D02*
X116249000Y-115804000D01*
X116249000Y-113304000D02*
X119249000Y-113304000D01*
G04 #@! TO.C,C4*
X124501000Y-67925000D02*
X129499000Y-67925000D01*
X124509000Y-67785000D02*
X126846000Y-67785000D01*
X127154000Y-67785000D02*
X129491000Y-67785000D01*
X124525000Y-67645000D02*
X126527000Y-67645000D01*
X127473000Y-67645000D02*
X129475000Y-67645000D01*
X124549000Y-67505000D02*
X126380000Y-67505000D01*
X127620000Y-67505000D02*
X129451000Y-67505000D01*
X124582000Y-67365000D02*
X126288000Y-67365000D01*
X127712000Y-67365000D02*
X129418000Y-67365000D01*
X124623000Y-67225000D02*
X126232000Y-67225000D01*
X127768000Y-67225000D02*
X129377000Y-67225000D01*
X124673000Y-67085000D02*
X126205000Y-67085000D01*
X127795000Y-67085000D02*
X129327000Y-67085000D01*
X124734000Y-66945000D02*
X126202000Y-66945000D01*
X127798000Y-66945000D02*
X129266000Y-66945000D01*
X124804000Y-66805000D02*
X126224000Y-66805000D01*
X127776000Y-66805000D02*
X129196000Y-66805000D01*
X124886000Y-66665000D02*
X126274000Y-66665000D01*
X127726000Y-66665000D02*
X129114000Y-66665000D01*
X124981000Y-66525000D02*
X126356000Y-66525000D01*
X127644000Y-66525000D02*
X129019000Y-66525000D01*
X125092000Y-66385000D02*
X126488000Y-66385000D01*
X127512000Y-66385000D02*
X128908000Y-66385000D01*
X125220000Y-66245000D02*
X126735000Y-66245000D01*
X127265000Y-66245000D02*
X128780000Y-66245000D01*
X125369000Y-66105000D02*
X128631000Y-66105000D01*
X125548000Y-65965000D02*
X128452000Y-65965000D01*
X125767000Y-65825000D02*
X128233000Y-65825000D01*
X126056000Y-65685000D02*
X127944000Y-65685000D01*
X126528000Y-65545000D02*
X127472000Y-65545000D01*
X127800000Y-67000000D02*
G75*
G03X127800000Y-67000000I-800000J0D01*
G01*
X129537500Y-68000000D02*
G75*
G03X129537500Y-68000000I-2537500J0D01*
G01*
G04 #@! TO.C,C5*
X149750000Y-110250000D02*
X149750000Y-107250000D01*
X152250000Y-107250000D02*
X152250000Y-110250000D01*
G04 #@! TO.C,C6*
X154750000Y-110250000D02*
X154750000Y-107250000D01*
X157250000Y-107250000D02*
X157250000Y-110250000D01*
G04 #@! TO.C,C7*
X144501000Y-67925000D02*
X149499000Y-67925000D01*
X144509000Y-67785000D02*
X146846000Y-67785000D01*
X147154000Y-67785000D02*
X149491000Y-67785000D01*
X144525000Y-67645000D02*
X146527000Y-67645000D01*
X147473000Y-67645000D02*
X149475000Y-67645000D01*
X144549000Y-67505000D02*
X146380000Y-67505000D01*
X147620000Y-67505000D02*
X149451000Y-67505000D01*
X144582000Y-67365000D02*
X146288000Y-67365000D01*
X147712000Y-67365000D02*
X149418000Y-67365000D01*
X144623000Y-67225000D02*
X146232000Y-67225000D01*
X147768000Y-67225000D02*
X149377000Y-67225000D01*
X144673000Y-67085000D02*
X146205000Y-67085000D01*
X147795000Y-67085000D02*
X149327000Y-67085000D01*
X144734000Y-66945000D02*
X146202000Y-66945000D01*
X147798000Y-66945000D02*
X149266000Y-66945000D01*
X144804000Y-66805000D02*
X146224000Y-66805000D01*
X147776000Y-66805000D02*
X149196000Y-66805000D01*
X144886000Y-66665000D02*
X146274000Y-66665000D01*
X147726000Y-66665000D02*
X149114000Y-66665000D01*
X144981000Y-66525000D02*
X146356000Y-66525000D01*
X147644000Y-66525000D02*
X149019000Y-66525000D01*
X145092000Y-66385000D02*
X146488000Y-66385000D01*
X147512000Y-66385000D02*
X148908000Y-66385000D01*
X145220000Y-66245000D02*
X146735000Y-66245000D01*
X147265000Y-66245000D02*
X148780000Y-66245000D01*
X145369000Y-66105000D02*
X148631000Y-66105000D01*
X145548000Y-65965000D02*
X148452000Y-65965000D01*
X145767000Y-65825000D02*
X148233000Y-65825000D01*
X146056000Y-65685000D02*
X147944000Y-65685000D01*
X146528000Y-65545000D02*
X147472000Y-65545000D01*
X147800000Y-67000000D02*
G75*
G03X147800000Y-67000000I-800000J0D01*
G01*
X149537500Y-68000000D02*
G75*
G03X149537500Y-68000000I-2537500J0D01*
G01*
G04 #@! TO.C,C9*
X159750000Y-110250000D02*
X159750000Y-107250000D01*
X162250000Y-107250000D02*
X162250000Y-110250000D01*
G04 #@! TO.C,C10*
X98750000Y-100750000D02*
X101750000Y-100750000D01*
X101750000Y-103250000D02*
X98750000Y-103250000D01*
G04 #@! TO.C,C11*
X175750000Y-110250000D02*
X175750000Y-107250000D01*
X178250000Y-107250000D02*
X178250000Y-110250000D01*
G04 #@! TO.C,C12*
X170750000Y-110250000D02*
X170750000Y-107250000D01*
X173250000Y-107250000D02*
X173250000Y-110250000D01*
G04 #@! TO.C,C13*
X164250000Y-86500000D02*
X164250000Y-83500000D01*
X166750000Y-83500000D02*
X166750000Y-86500000D01*
G04 #@! TO.C,C14*
X144750000Y-89250000D02*
X144750000Y-86250000D01*
X147250000Y-86250000D02*
X147250000Y-89250000D01*
G04 #@! TO.C,C15*
X183750000Y-78250000D02*
X183750000Y-75250000D01*
X186250000Y-75250000D02*
X186250000Y-78250000D01*
G04 #@! TO.C,C16*
X188750000Y-78250000D02*
X188750000Y-75250000D01*
X191250000Y-75250000D02*
X191250000Y-78250000D01*
G04 #@! TO.C,C8*
X147189000Y-74529000D02*
X144189000Y-74529000D01*
X144189000Y-72029000D02*
X147189000Y-72029000D01*
G04 #@! TO.C,C18*
X193750000Y-78250000D02*
X193750000Y-75250000D01*
X196250000Y-75250000D02*
X196250000Y-78250000D01*
G04 #@! TO.C,D5*
X205002540Y-104116520D02*
X205002540Y-105513520D01*
X205002540Y-99671520D02*
X205002540Y-98147520D01*
X205764540Y-100052520D02*
X204240540Y-100052520D01*
X205764540Y-99798520D02*
X204240540Y-99798520D01*
X205002540Y-99544520D02*
X204240540Y-99544520D01*
X204240540Y-99544520D02*
X204240540Y-104116520D01*
X204240540Y-104116520D02*
X205764540Y-104116520D01*
X205764540Y-104116520D02*
X205764540Y-99544520D01*
X205764540Y-99544520D02*
X205002540Y-99544520D01*
G04 #@! TO.C,F1*
X96738000Y-107208000D02*
X96738000Y-114708000D01*
X96738000Y-114708000D02*
X92238000Y-114708000D01*
X92238000Y-114708000D02*
X92238000Y-107208000D01*
X92238000Y-107208000D02*
X96738000Y-107208000D01*
G04 #@! TO.C,C17*
X119249000Y-111105000D02*
X116249000Y-111105000D01*
X116249000Y-108605000D02*
X119249000Y-108605000D01*
G04 #@! TO.C,C19*
X132846000Y-96159000D02*
X135846000Y-96159000D01*
X135846000Y-98659000D02*
X132846000Y-98659000D01*
G04 #@! TO.C,SW2*
D12*
X190964285Y-101250000D02*
X191678571Y-101250000D01*
X190821428Y-101678571D02*
X191321428Y-100178571D01*
X191821428Y-101678571D01*
X192321428Y-101107142D02*
X193464285Y-101107142D01*
X194821428Y-101678571D02*
X194821428Y-100892857D01*
X194750000Y-100750000D01*
X194607142Y-100678571D01*
X194321428Y-100678571D01*
X194178571Y-100750000D01*
X194821428Y-101607142D02*
X194678571Y-101678571D01*
X194321428Y-101678571D01*
X194178571Y-101607142D01*
X194107142Y-101464285D01*
X194107142Y-101321428D01*
X194178571Y-101178571D01*
X194321428Y-101107142D01*
X194678571Y-101107142D01*
X194821428Y-101035714D01*
X195392857Y-101678571D02*
X196178571Y-100678571D01*
X195392857Y-100678571D02*
X196178571Y-101678571D01*
X196750000Y-101678571D02*
X196750000Y-100678571D01*
X196750000Y-100178571D02*
X196678571Y-100250000D01*
X196750000Y-100321428D01*
X196821428Y-100250000D01*
X196750000Y-100178571D01*
X196750000Y-100321428D01*
X197392857Y-101607142D02*
X197535714Y-101678571D01*
X197821428Y-101678571D01*
X197964285Y-101607142D01*
X198035714Y-101464285D01*
X198035714Y-101392857D01*
X197964285Y-101250000D01*
X197821428Y-101178571D01*
X197607142Y-101178571D01*
X197464285Y-101107142D01*
X197392857Y-100964285D01*
X197392857Y-100892857D01*
X197464285Y-100750000D01*
X197607142Y-100678571D01*
X197821428Y-100678571D01*
X197964285Y-100750000D01*
G04 #@! TD*
M02*
