M48
;DRILL file {KiCad (5.0.0-rc2-20-gcf2a07559)} date 05/24/18 23:43:36
;FORMAT={-:-/ absolute / inch / decimal}
FMAT,2
INCH,TZ
T1C0.0130
T2C0.0276
T3C0.0300
T4C0.0315
T5C0.0315
T6C0.0320
T7C0.0354
T8C0.0394
T9C0.0394
T10C0.0400
T11C0.0433
T12C0.0500
T13C0.0669
T14C0.0906
T15C0.1693
%
G90
G05
M72
T1
X5.5413Y-4.3898
X5.6988Y-3.8583
X5.8169Y-3.248
X5.8563Y-3.3071
X5.8563Y-4.4291
X5.9154Y-3.3661
X6.2402Y-2.8248
X6.2402Y-2.9331
X6.2402Y-3.0413
X6.2402Y-4.1831
X6.2795Y-2.6969
X6.437Y-4.1732
X7.2343Y-3.1398
X7.4311Y-3.7303
X7.6378Y-3.5138
X7.74Y-3.525
X7.8642Y-3.0413
X7.9134Y-3.6614
X7.955Y-2.735
T2
X8.071Y-3.8091
X8.071Y-4.2091
T3
X6.7291Y-4.0354
X6.9291Y-4.0354
T4
X5.9843Y-3.5189
X5.9843Y-3.8189
X6.0843Y-3.5189
X6.0843Y-3.8189
X6.1843Y-3.5189
X6.1843Y-3.8189
X6.2843Y-3.5189
X6.2843Y-3.8189
X6.3843Y-3.5189
X6.3843Y-3.8189
X6.4843Y-3.5189
X6.4843Y-3.8189
X6.5843Y-3.5189
X6.5843Y-3.8189
X6.6843Y-3.5189
X6.6843Y-3.8189
X6.7843Y-3.5189
X6.7843Y-3.8189
X6.8843Y-3.5189
X6.8843Y-3.8189
X6.9843Y-3.5189
X6.9843Y-3.8189
X7.0843Y-3.5189
X7.0843Y-3.8189
X7.1843Y-3.5189
X7.1843Y-3.8189
X7.2843Y-3.5189
X7.2843Y-3.8189
X3.8732Y-3.5189
X3.8732Y-3.6189
X3.8732Y-3.7189
X3.8732Y-3.8189
X4.1732Y-3.5189
X4.1732Y-3.6189
X4.1732Y-3.7189
X4.1732Y-3.8189
X3.8976Y-4.2126
X3.8976Y-4.3126
X4.1976Y-4.2126
X4.1976Y-4.3126
X4.355Y-3.72
X6.5354Y-4.3307
X4.685Y-4.51
X5.Y-2.6378
X5.Y-2.7165
X5.9449Y-4.3307
X6.1417Y-4.3307
X5.7874Y-2.6378
X5.7874Y-2.7165
X6.3386Y-4.3307
X3.8976Y-4.0157
X6.9685Y-4.3307
X6.7717Y-4.3307
X6.5157Y-3.3957
X5.748Y-3.5039
X7.2835Y-3.0709
X7.4803Y-3.0709
X5.785Y-2.885
X7.6772Y-3.0709
X4.685Y-4.325
X5.24Y-3.835
T5
X7.5272Y-4.102
X7.5272Y-4.4015
X7.6272Y-4.102
X7.6272Y-4.402
X7.7272Y-4.102
X7.7272Y-4.402
X7.8272Y-4.102
X7.8272Y-4.402
X4.4534Y-3.72
X6.5354Y-4.2323
X4.5866Y-4.51
X5.9449Y-4.2323
X6.1417Y-4.2323
X6.3386Y-4.2323
X3.9961Y-4.0157
X6.9685Y-4.2323
X6.7717Y-4.2323
X6.5157Y-3.2972
X5.748Y-3.4055
X7.2835Y-2.9724
X7.4803Y-2.9724
X5.6866Y-2.885
X7.6772Y-2.9724
X4.5866Y-4.325
X5.3384Y-3.835
T6
X4.03Y-4.61
X4.03Y-4.6887
X4.13Y-4.61
X4.13Y-4.6887
T7
X3.72Y-4.27
X3.72Y-4.4669
T8
X8.198Y-3.1283
X8.198Y-3.2283
X8.198Y-3.3283
X8.298Y-3.1283
X8.298Y-3.2283
X8.298Y-3.3283
T9
X5.3937Y-4.7
X5.3937Y-5.
X5.145Y-4.075
X5.445Y-4.075
X5.145Y-3.605
X5.445Y-3.605
X5.0394Y-4.7
X5.0394Y-5.
X4.685Y-4.7
X4.685Y-5.
X4.9804Y-2.9134
X5.2937Y-2.7362
X5.3937Y-2.7362
X5.4937Y-2.7362
X5.1575Y-5.
X5.2575Y-5.
X4.8031Y-5.
X4.9031Y-5.
X4.4488Y-5.
X4.5488Y-5.
X8.3268Y-3.9028
X8.3268Y-4.2028
X5.2944Y-2.912
X5.2944Y-3.212
X5.1575Y-2.9134
X5.1575Y-3.2134
T10
X6.4567Y-2.5969
X6.4567Y-2.6969
X6.5567Y-2.5969
X6.5567Y-2.6969
X6.6567Y-2.5969
X6.6567Y-2.6969
X6.7567Y-2.5969
X6.7567Y-2.6969
X6.8567Y-2.5969
X6.8567Y-2.6969
X6.9567Y-2.5969
X6.9567Y-2.6969
X7.0567Y-2.5969
X7.0567Y-2.6969
X7.1567Y-2.5969
X7.1567Y-2.6969
X7.2567Y-2.5969
X7.2567Y-2.6969
X7.3567Y-2.5969
X7.3567Y-2.6969
X7.4567Y-2.5969
X7.4567Y-2.6969
X7.5567Y-2.5969
X7.5567Y-2.6969
X7.6567Y-2.5969
X7.6567Y-2.6969
T11
X8.0709Y-4.4488
X8.0709Y-4.626
X8.3268Y-4.4488
X8.3268Y-4.626
T12
X4.9804Y-3.3134
T13
X4.1142Y-3.0669
X4.5472Y-3.0669
X6.9173Y-4.7165
X7.1673Y-4.7165
X7.5472Y-4.7165
X7.7972Y-4.7165
X6.2874Y-4.7165
X6.5374Y-4.7165
X5.6575Y-4.7165
X5.9075Y-4.7165
T14
X3.8438Y-4.795
X4.3162Y-4.795
T15
X3.622Y-2.6378
X3.622Y-4.9606
X8.2677Y-4.9606
X8.2677Y-2.6378
T0
M30
